<svg xmlns="http://www.w3.org/2000/svg" width="726" height="844" viewBox="0 0 726 844" fill="none"><g clip-path="url(#clip0_26_10492)"><g clip-path="url(#clip1_26_10492)"><path d="M247.98 724.94C250.47 734.55 253.91 749.52 254.33 760.23C255 777.23 250.53 797.35 250.75 803.84C250.76 804.18 250.73 804.59 250.66 805.06C250.66 805.06 248.51 793.33 249.63 783.72C250.33 777.7 244.03 750.59 239.21 731.14C240.67 730.57 241.93 729.99 242.92 729.38C245.01 728.1 246.66 726.59 247.97 724.95L247.98 724.94Z" fill="#677D8C"></path><path d="M155.5 1305.86C156.17 1284.39 163.77 1182.2 174.96 1159.84C181.06 1147.64 189.09 1135.62 195.21 1123.67L206.96 1059.21C210.85 1018.86 217.67 957.92 218.79 931.74C220.36 895.29 245.18 840.73 248.53 827.98C251.88 815.24 250.68 805.05 250.68 805.05C250.74 804.59 250.78 804.17 250.77 803.83C250.55 797.34 255.02 777.22 254.35 760.22C253.93 749.51 250.48 734.54 248 724.93C249.33 723.27 250.31 721.47 251 719.62C251.07 719.44 251.12 719.26 251.19 719.08C254.88 721.28 259.34 723.79 261.45 724.34C262.62 724.64 263.96 724.59 265.27 724.36C266.37 734.24 269.49 761.18 272.02 771.86C275.15 785.05 277.61 821.06 275.37 833.13C273.13 845.21 246.75 976.47 246.52 977.36C246.3 978.25 227.96 1075.75 226.84 1092.3C225.72 1108.85 202.02 1147.53 202.02 1147.53C202.02 1147.53 206.49 1154.91 206.49 1166.76C206.49 1178.61 188.38 1240.33 188.38 1240.33C188.38 1240.33 190.39 1249.72 192.63 1258.89C194.87 1268.06 190.62 1304.73 192.85 1313.45C195.09 1322.17 190.17 1341.4 191.06 1345.87C191.95 1350.34 196.2 1353.7 196.2 1353.7C196.2 1353.7 195.35 1353.83 194.08 1354.05C191.55 1354.5 187.33 1355.34 184.79 1356.38C180.99 1357.95 171.37 1362.19 164.44 1363.98C164.18 1364.05 163.89 1364.1 163.61 1364.16C163.1 1361.87 162.4 1358.61 161.61 1354.74C159.34 1343.52 156.41 1327.13 155.65 1314.02C155.48 1311.1 155.42 1308.34 155.49 1305.85L155.5 1305.86Z" fill="#7B93A9"></path><path d="M147.67 1290.21C150.35 1273.66 151.47 1228.49 152.14 1219.55C152.81 1210.61 163.77 1172.59 165.33 1166.55C166.89 1160.51 182.33 1141.28 187.47 1129.65C192.61 1118.02 207.15 977.14 209.26 959.03C211.37 940.92 219 872.49 227.95 856.84C236.43 842 249.52 813.51 250.67 805.06C250.67 805.06 251.87 815.25 248.52 827.99C245.17 840.74 220.34 895.3 218.78 931.75C217.66 957.93 210.84 1018.86 206.95 1059.22L195.2 1123.68C189.08 1135.63 181.05 1147.65 174.95 1159.85C163.77 1182.21 156.17 1284.41 155.49 1305.87C155.41 1308.37 155.48 1311.13 155.65 1314.04C156.41 1327.15 159.34 1343.54 161.61 1354.76C162.4 1358.64 163.1 1361.9 163.61 1364.18C160.83 1364.75 157.07 1364.86 153.46 1364.77C152.32 1361.59 151.12 1358.42 149.98 1355.73C149.65 1354.95 149.32 1354.19 149.01 1353.5C148.65 1352.71 148.24 1351.92 147.82 1351.14C147.7 1348.68 147.15 1345.84 145.88 1342.55C144.26 1338.35 142.91 1335.3 141.78 1333.06C138.71 1326.93 137.38 1326.9 137.38 1326.9C137.38 1326.9 144.98 1306.77 147.67 1290.23V1290.21Z" fill="#677D8C"></path><path d="M42.57 734.29C44.85 734.13 49.36 734.3 55.24 734.69C55.18 737.73 55.19 741.56 55.28 746.32C50.93 745.51 45.82 744.36 41.01 742.79C29.38 738.99 21.78 736.53 21.78 736.53C25.13 737.42 29.83 735.19 42.58 734.29H42.57Z" fill="#1D1E1C"></path><path d="M51.06 1228.49C52.3999 1207.47 57.32 1136.13 67.16 1102.14C77 1068.15 78.34 1012.24 78.7899 1007.1C79.2399 1001.96 83.7099 997.48 83.0399 994.8C82.3699 992.12 79.46 936.44 79.69 923.24C79.91 910.05 75.89 911.16 76.56 864.65C77.2299 818.14 59.5599 840.05 56.2099 771.62C55.6999 761.12 55.3999 752.83 55.2699 746.3C55.1799 741.54 55.17 737.71 55.23 734.67C59 734.92 63.3399 735.25 68.0499 735.65C89.2599 737.44 117.8 740.42 134.28 741.9C135.41 758.75 137.25 779.51 139.84 788.39C144.54 804.49 149.46 810.08 149.46 810.08C149.46 810.08 146.55 926.81 143.42 944.48C140.29 962.15 128.88 1061.66 121.51 1092.96C114.13 1124.27 95.79 1172.12 93.56 1217.74C91.32 1263.36 87.75 1331.56 93.56 1355.94C96.35 1367.65 101.1 1381.36 105.29 1392.46C108.16 1400.08 110.77 1406.47 112.29 1410.11C101.69 1414.32 90.57 1417.52 83.49 1415.64C71.4 1412.43 61.5699 1410.33 57.8599 1408.01C57.1799 1407.58 56.68 1407.15 56.44 1406.7C54.87 1403.79 56.44 1393.28 56.44 1389.93C56.44 1386.58 53.76 1336.71 51.07 1321.95C48.39 1307.19 49.73 1249.5 51.07 1228.48L51.06 1228.49Z" fill="#677D8C"></path><path d="M93.5499 1217.76C95.7899 1172.14 114.12 1124.29 121.5 1092.98C128.88 1061.67 140.28 962.16 143.41 944.5C146.54 926.83 149.45 810.1 149.45 810.1C149.45 810.1 144.53 804.51 139.83 788.41C137.24 779.53 135.4 758.77 134.27 741.92C140.28 742.46 144.68 742.79 146.54 742.79C151.67 742.79 173.57 741.63 195.48 739.23C211.07 737.52 226.64 735.18 236.22 732.16C237.29 731.82 238.3 731.48 239.21 731.13C244.03 750.59 250.33 777.69 249.63 783.71C248.51 793.33 250.66 805.05 250.66 805.05C249.51 813.5 236.42 841.99 227.94 856.83C219 872.48 211.36 940.91 209.25 959.02C207.14 977.13 192.61 1118.01 187.46 1129.64C182.32 1141.27 166.89 1160.5 165.32 1166.54C163.75 1172.58 152.8 1210.59 152.13 1219.54C151.46 1228.48 150.34 1273.66 147.66 1290.2C144.98 1306.75 137.37 1326.87 137.37 1326.87C137.37 1326.87 138.69 1326.9 141.77 1333.03C142.9 1335.28 144.25 1338.32 145.87 1342.52C147.14 1345.82 147.69 1348.65 147.81 1351.11C148.23 1351.89 148.64 1352.68 149 1353.47C149.32 1354.16 149.64 1354.92 149.97 1355.7C151.11 1358.4 152.31 1361.56 153.45 1364.74C154.97 1368.97 156.39 1373.2 157.41 1376.32C157.92 1377.9 158.34 1379.21 158.62 1380.07C159.25 1382.05 160.25 1382.76 161.09 1383.41C162.04 1384.15 162.77 1384.82 162.43 1387.23C162.27 1388.34 161.3 1389.34 159.79 1390.28C157.58 1391.65 154.21 1392.88 150.49 1394.12C146.46 1395.47 142.04 1396.83 138.27 1398.41C133.41 1400.45 123.12 1405.79 112.28 1410.1C110.76 1406.45 108.15 1400.07 105.28 1392.45C101.09 1381.35 96.3399 1367.64 93.5499 1355.93C87.7399 1331.56 91.3099 1263.35 93.5499 1217.73V1217.76Z" fill="#7B93A9"></path><path d="M251.74 717.18C252.96 712.3 252.55 707.35 251.96 703.92L272.85 700.51H272.9L273.05 700.48L279.13 699.49L271.22 722.33C271.22 722.33 268.33 723.82 265.25 724.36C263.94 724.59 262.6 724.65 261.43 724.34C259.32 723.79 254.86 721.29 251.17 719.08C251.39 718.45 251.58 717.82 251.74 717.18Z" fill="#602817"></path><path d="M25.8 715.51C27.14 705.89 29.15 650.66 28.93 638.36C28.74 628.02 32.35 604.89 33.5 597.77C44.16 608.42 54.48 617.29 57.22 620.35C62.92 626.72 88.41 654.23 99.48 665.3C102.55 668.37 105.54 672.88 108.26 677.8L116.23 723.92L116.59 726.01L133.2 723.3L140.75 722.07L157.73 720.79L175.27 719.47C177.33 723.37 178.96 727.63 181.66 729.71C186.02 733.06 195.08 733.06 200.11 733.96C205.14 734.85 206.15 729.71 209.84 729.04C213.53 728.37 215.21 731.05 220.57 730.72C225.94 730.38 225.6 725.35 228.62 723.68C231.22 722.23 233.09 724.27 237.43 724C238.12 723.96 238.86 723.87 239.69 723.68C242.56 723.04 243.22 719.74 242.85 715.52C242.58 712.52 241.8 709.06 240.89 705.74L245.4 705L251.96 703.93C252.56 707.36 252.96 712.31 251.74 717.19C251.58 717.83 251.39 718.46 251.17 719.09C251.11 719.27 251.05 719.45 250.98 719.63C250.29 721.48 249.31 723.28 247.98 724.94C246.67 726.58 245.02 728.09 242.93 729.37C241.94 729.98 240.68 730.56 239.22 731.13C238.31 731.48 237.3 731.83 236.23 732.16C226.66 735.17 211.09 737.51 195.49 739.23C173.57 741.63 151.67 742.79 146.55 742.79C144.69 742.79 140.29 742.46 134.28 741.92C117.8 740.45 89.26 737.46 68.05 735.67C63.34 735.27 59 734.94 55.23 734.69C49.35 734.3 44.85 734.13 42.56 734.29C29.81 735.18 25.12 737.42 21.76 736.53C18.41 735.64 13.49 730.72 13.49 730.72C13.49 730.72 24.45 725.13 25.79 715.51H25.8Z" fill="#2F2831"></path><path d="M207.82 328.87C206.35 331.26 205.79 335.77 206 340.58L205.42 340.55L193.77 321.49C194.87 318.16 199.78 311.76 200.45 306.06C201.12 300.36 196.09 292.64 196.09 292.64L199.24 287.21L226.95 319.14C226.95 319.14 223.16 327.29 220.56 333.19C215.63 329.83 209.39 326.32 207.83 328.87H207.82Z" fill="#C7E6F8"></path><path d="M190.34 301.05L196.09 292.64C196.09 292.64 201.12 300.35 200.45 306.06C199.78 311.76 194.87 318.16 193.77 321.49C193.49 322.34 193.35 324.13 193.3 326.32C190.76 320.28 188.07 314.33 185.24 308.51L190.34 301.05Z" fill="#8BA2AE"></path><path d="M175.57 267.83C183.45 272.71 192.75 278.02 201.92 282.54L199.22 287.2L196.07 292.63C196.07 292.63 194.69 291.07 192.46 288.56C188.32 283.9 181.24 275.96 174.64 268.68C173.6 267.53 172.58 266.41 171.57 265.31C172.85 266.13 174.18 266.97 175.56 267.82L175.57 267.83Z" fill="#E9937B"></path><path d="M193.77 321.49L205.42 340.55L206.06 341.59C206.3 345.23 206.96 348.96 208 352.01C210.52 359.39 219.57 389.63 225.27 405.37C230.97 421.11 247.07 504.3 250.76 514.02C253.82 522.09 262.88 556.92 265.88 568.56L262.91 569.08L257.14 551.92C257.14 551.92 255.65 548.57 252.54 547.56C249.43 546.55 242.38 549.91 242.38 549.91L240.37 550.62C239.6 537.48 238.35 516.41 237.68 506.64C236.67 491.88 224.6 435.19 214.54 391.59C210.8 375.37 205.47 357.71 198.87 340.24C197.11 335.57 195.25 330.92 193.31 326.31C193.36 324.13 193.49 322.34 193.78 321.48L193.77 321.49Z" fill="#C7E6F8"></path><path d="M46.1501 291.3C53.3601 280.49 67.2801 275.53 74.6601 272.18C79.4901 269.99 89.3101 265.08 96.7701 261.66C100.72 259.85 104.01 258.44 105.52 258.1C111.72 259.19 116.83 262.48 121.92 267.04C126.2 270.87 130.47 275.6 135.37 280.72C142.88 288.57 154.33 317.86 162.48 338.55C165.98 347.43 168.88 354.73 170.59 358.06C176.29 369.13 196.08 469.76 201.78 491.9C205.61 506.78 216.11 538.02 222.58 556.91L214.68 559.7L173.99 574.05C162.23 562.9 128.07 529.78 125.3 518.41C121.95 504.66 131 392.29 129.33 363.44C127.65 334.59 119.38 315.64 119.38 315.64H119.36C110.33 276.11 80.3601 280.93 80.3601 280.93C80.3601 280.93 58.5801 278.59 35.7901 305.71C36.1701 305.26 39.3901 301.45 46.1501 291.33V291.3Z" fill="#443D49"></path><path d="M100.53 256.94C102.34 257.43 104.03 257.83 105.52 258.09C104.01 258.44 100.72 259.84 96.77 261.65C96.77 261.65 98.54 259.13 100.53 256.94Z" fill="#2F2831"></path><path d="M122.3 264.54C125.4 266.82 128.77 269.76 132.35 273.53C144.76 286.61 151.8 282.92 151.8 282.92L142.41 290.63C142.41 290.63 154.93 317.55 164.5 338.64C167.06 344.28 169.41 349.51 171.26 353.69C179.98 373.48 197.09 448.95 202.45 473.38C206.78 493.11 225.33 537.21 232.31 553.46L222.58 556.89C216.11 538 205.61 506.77 201.78 491.88C196.08 469.74 176.29 369.11 170.59 358.04C168.88 354.72 165.98 347.41 162.48 338.53C154.33 317.84 142.88 288.55 135.37 280.7C130.47 275.58 126.2 270.85 121.92 267.02C116.82 262.46 111.72 259.17 105.52 258.08C108.62 257.36 114.63 258.88 122.31 264.52L122.3 264.54Z" fill="#2F2831"></path><path d="M102.83 254.74C105.54 252.65 104.84 247.7 108.53 240.65C108.53 240.65 111.82 238.62 117.53 238.38C118.36 238.34 119.25 238.35 120.18 238.4C128.68 238.87 141.24 243.46 155.83 261.11C164.01 271.01 171.68 282.84 178.67 295.71C180.93 299.87 183.12 304.15 185.24 308.5C188.06 314.31 190.76 320.27 193.3 326.31C195.24 330.92 197.1 335.57 198.86 340.24C205.47 357.71 210.79 375.37 214.53 391.59C224.59 435.2 236.67 491.88 237.67 506.64C238.34 516.41 239.59 537.48 240.36 550.62L232.31 553.46C225.33 537.21 206.78 493.11 202.45 473.38C197.08 448.95 179.98 373.48 171.26 353.69C169.42 349.51 167.07 344.28 164.5 338.64C154.93 317.55 142.41 290.63 142.41 290.63L151.8 282.92C151.8 282.92 144.76 286.61 132.35 273.53C128.78 269.76 125.41 266.83 122.3 264.54C114.62 258.9 108.62 257.38 105.51 258.1C104.02 257.84 102.33 257.44 100.52 256.95C101.28 256.11 102.08 255.32 102.82 254.74H102.83Z" fill="#605769"></path><path d="M250.76 514.03C247.07 504.3 230.97 421.12 225.27 405.38C219.57 389.64 210.51 359.4 208 352.02C206.96 348.97 206.3 345.24 206.06 341.6L213.87 354.37C213.87 354.37 215.55 363.43 218.9 370.14C222.25 376.85 240.7 432.19 244.73 457.69C248.76 483.18 252.44 507.33 255.8 518.07C258.65 527.2 269.02 558.38 272.06 567.51L265.89 568.58C262.89 556.94 253.83 522.11 250.77 514.04L250.76 514.03Z" fill="#8BA2AE"></path><path d="M216.14 345.73C216.65 346.79 217.22 348.01 217.86 349.34C222.5 359.09 230.13 375.16 235 385.56C242.38 401.33 261.83 465.73 267.54 494.91C273.24 524.09 272.91 567.35 272.91 567.35L272.06 567.5C269.02 558.36 258.65 527.18 255.8 518.06C252.45 507.33 248.76 483.18 244.73 457.68C240.7 432.19 222.26 376.84 218.9 370.13C215.55 363.42 213.87 354.36 213.87 354.36C213.87 354.36 214.94 350.1 216.15 345.73H216.14Z" fill="#443D49"></path><path d="M120.61 706.23C120.61 706.23 123.46 705.59 127.02 703.99L133.01 719.45L140.86 716.57L155.44 711.23L165.19 707.66C167.04 710.02 168.99 711.97 170.64 713.27C171.13 713.65 171.57 714.1 172 714.56C172.6 715.21 173.14 715.93 173.65 716.7C174.23 717.58 174.76 718.51 175.27 719.46L157.73 720.78L140.75 722.06L133.2 723.29L116.59 726L116.23 723.91L108.26 677.79C115.35 690.62 120.61 706.21 120.61 706.21V706.23Z" fill="#1D1E1C"></path><path d="M244.02 684.09C246.33 683.08 259.82 688.79 268.88 692.48C275.54 695.19 282.74 695.36 287.15 692.86C288.74 691.96 289.97 690.73 290.68 689.13C293.36 683.09 275.25 677.05 267.31 673.7C266.3 673.27 264.83 672.63 263.04 671.84L293.69 660.62L264.15 572.8L262.9 569.1L265.87 568.58L272.04 567.51L272.89 567.36L278.59 566.37C278.59 566.37 284.96 564.36 287.31 565.03C289.66 565.7 290.93 568.05 290.93 568.05L311.79 694.17L279.11 699.5L273.03 700.49L272.83 700.52L251.94 703.93L245.38 705L240.87 705.74C240.37 703.92 239.84 702.15 239.34 700.54C238.85 698.94 238.62 697.41 238.58 695.96C238.53 694.2 238.79 692.59 239.2 691.14C240.31 687.31 242.62 684.7 244 684.1L244.02 684.09Z" fill="#1D1E1C"></path><path d="M207.82 328.87C209.39 326.33 215.62 329.83 220.55 333.19C219.69 335.14 218.97 336.84 218.55 337.92C217.87 339.69 216.97 342.74 216.13 345.73C214.91 350.1 213.85 354.36 213.85 354.36L206.04 341.59C206.02 341.25 206 340.91 205.98 340.57C205.77 335.77 206.33 331.25 207.8 328.86L207.82 328.87Z" fill="#8BA2AE"></path><path d="M141.74 582.45C130.34 570.71 107.19 543.88 98.8 536.83C90.41 529.79 90.41 520.39 90.41 520.39C90.41 520.39 100.81 483.49 103.83 472.76C106.85 462.03 127.65 368.78 120.6 322.15C120.25 319.83 119.82 317.68 119.35 315.61H119.37C119.37 315.61 127.65 334.56 129.32 363.41C131 392.26 121.94 504.63 125.29 518.38C128.06 529.75 162.22 562.87 173.98 574.02L143.86 584.64C143.08 583.84 142.36 583.09 141.73 582.45H141.74Z" fill="#2F2831"></path><path d="M133.01 700.52C135.54 698.65 139.2 693.41 143.21 687.45L152.09 697.17L155.16 700.52C155.16 700.52 156.83 699.21 159.43 697.14C160.67 701.02 162.85 704.67 165.2 707.65L155.45 711.22L140.87 716.56L133.02 719.44L127.03 703.98C128.93 703.12 131.03 701.99 133.02 700.52H133.01Z" fill="#91694E"></path><path d="M156.7 597.81C156.38 597.48 156.06 597.15 155.74 596.83C151.13 592.1 146.95 587.82 143.87 584.65L173.99 574.03L214.68 559.68L222.58 556.89L232.31 553.46L240.36 550.62L242.37 549.91C242.37 549.91 249.41 546.56 252.53 547.56C255.64 548.57 257.13 551.92 257.13 551.92L262.9 569.08L264.15 572.78L293.69 660.6L263.04 671.82C250.84 666.43 223.36 653.92 217.22 651.88C213.81 650.74 208.98 649.84 204.91 649.22L187.05 637.87C189.72 635.16 191.44 633.41 191.44 633.41C191.44 633.41 180.96 622.68 169.34 610.76C165.13 606.45 160.78 601.98 156.71 597.81H156.7Z" fill="#91694E"></path><path d="M118.65 236.42C120.19 233.83 121.84 231.59 122.96 231.59C125.01 231.59 141.59 240.23 152.57 247.52C155.94 249.76 158.79 251.87 160.53 253.56C162.76 255.74 166.9 260.19 171.59 265.32C172.59 266.42 173.62 267.54 174.66 268.69C181.26 275.97 188.34 283.9 192.48 288.57C194.71 291.08 196.09 292.64 196.09 292.64L190.34 301.05L185.24 308.51C183.12 304.15 180.93 299.88 178.67 295.72C171.68 282.84 164.01 271.02 155.83 261.12C141.24 243.47 128.68 238.88 120.18 238.41C119.25 238.36 118.36 238.35 117.53 238.39C117.89 237.73 118.26 237.07 118.64 236.43L118.65 236.42Z" fill="#C7E6F8"></path><path d="M161.09 163.84C162.88 168.54 160.42 182.18 163.55 187.99C165.21 191.07 169.24 196.58 173.5 201.62C177.29 206.11 181.26 210.23 183.89 211.91C189.48 215.49 209.83 211.24 215.42 207.44C221.01 203.64 234.57 189.77 239.42 188.43C243.04 187.43 246.56 188.05 248.12 188.43C249.45 187.58 251.25 186.52 253.66 185.31C259.63 182.29 257.91 177.48 256.79 175.08C255.67 172.67 246.95 160.72 246.95 160.72C246.95 160.72 247.1 158.91 247.27 154.83C247.01 155.52 246.64 155.97 246.23 155.97C245.45 155.97 244.82 154.42 244.82 152.51C244.82 150.64 245.43 149.12 246.18 149.06C245.93 149.03 245.71 149.02 245.54 149.05C244.37 149.26 243.02 148.92 243.02 148.92C243.02 148.92 244.53 147.75 245.7 147.75C246.17 147.75 247 147.84 247.84 147.95C248.3 146.06 249.01 145.14 249.5 144.37C248.82 144.27 247.88 144.25 246.71 144.56C244.19 145.23 242.01 147.75 242.01 147.75C242.01 147.75 240.5 147.75 242.01 145.4C243.52 143.05 246.04 140.59 247.04 139.7C247.29 139.48 247.73 139.27 248.25 139.09C248.17 138.98 248.09 138.89 248.04 138.81C247.59 138.14 244.01 124.05 243.01 118.24C242 112.43 232.61 101.92 232.61 101.92C232.61 101.92 201.53 94.99 191.4 92.08C181.27 89.17 172.23 88.95 172.23 88.95C172.23 88.95 169.55 92.08 168.88 95.43C168.21 98.78 172.91 118.24 173.8 123.38C174.69 128.52 167.99 131.88 165.08 137.47C162.17 143.06 162.17 154.91 162.17 154.91C162.17 154.91 159.26 159.16 161.05 163.85L161.09 163.84Z" fill="#F6B79E"></path><path d="M251.21 208.34C251.21 208.34 248.53 208.56 243.83 208.34C239.13 208.12 229.29 210.8 229.29 210.8L234.99 206.77C234.99 206.77 244.49 202.74 248.52 202.3C250.81 202.05 253.15 203.09 254.76 204.05C253.07 207.47 251.2 208.34 251.2 208.34H251.21Z" fill="#F6B79E"></path><path d="M243.83 208.34C248.53 208.56 251.21 208.34 251.21 208.34L252.01 212.46L252.39 214.43C250.82 214.4 249.07 214.31 247.18 214.15C239.35 213.48 229.29 210.8 229.29 210.8C229.29 210.8 239.13 208.12 243.83 208.34Z" fill="#F6B79E"></path><path d="M227.61 143.71C225.77 143.88 218.89 139.18 213.52 139.85C208.15 140.52 202.95 142.37 201.11 143.71C199.27 145.05 193.4 147.73 193.4 147.73L196.75 144.88C196.75 144.88 205.97 134.82 212.18 135.15C218.39 135.49 223.08 137.33 225.6 138.5C228.12 139.67 230.97 141.85 230.97 141.85C230.97 141.85 229.46 143.53 227.62 143.69L227.61 143.71Z" fill="#2E140D"></path><path d="M246.73 144.55C244.21 145.22 242.03 147.74 242.03 147.74C242.03 147.74 240.52 147.74 242.03 145.39C243.54 143.04 246.06 140.58 247.06 139.69C247.31 139.47 247.75 139.26 248.27 139.08C248.9 139.89 250.27 141.47 250.07 143.05C250.01 143.54 249.79 143.93 249.51 144.37C248.83 144.27 247.89 144.25 246.72 144.56L246.73 144.55Z" fill="#2E140D"></path><path d="M215.71 148.41C218.56 147.91 223.42 147.74 223.42 147.74L224.76 149.42C224.76 149.42 220.24 149.03 217.2 149.28C216.97 149.13 216.72 149.04 216.45 149.04C216.04 149.04 215.67 149.24 215.35 149.57C212.26 150.35 206.64 152.94 206.64 152.94C206.64 152.94 212.85 148.91 215.7 148.41H215.71Z" fill="#343430"></path><path d="M246.24 149.04C246.24 149.04 246.21 149.04 246.2 149.05C245.95 149.02 245.73 149.01 245.56 149.04C244.39 149.25 243.04 148.91 243.04 148.91C243.04 148.91 244.55 147.74 245.72 147.74C246.19 147.74 247.02 147.83 247.86 147.94C247.76 148.36 247.67 148.83 247.59 149.35C247.19 149.24 246.81 149.15 246.46 149.09C246.38 149.06 246.31 149.03 246.23 149.03L246.24 149.04Z" fill="#343430"></path><path d="M217.21 149.27C218 149.77 218.56 151.02 218.56 152.49C218.56 154.4 217.62 155.95 216.46 155.95C215.3 155.95 214.36 154.4 214.36 152.49C214.36 151.25 214.76 150.17 215.35 149.56C215.59 149.5 215.83 149.45 216.03 149.41C216.38 149.35 216.77 149.3 217.19 149.27H217.21Z" fill="#343430"></path><path d="M246.24 155.95C245.46 155.95 244.83 154.4 244.83 152.49C244.83 150.62 245.44 149.1 246.19 149.04C246.28 149.05 246.37 149.07 246.47 149.09C246.89 149.26 247.24 149.89 247.45 150.76C247.43 151.04 247.41 151.33 247.4 151.64C247.36 152.84 247.32 153.87 247.28 154.82C247.02 155.51 246.65 155.96 246.24 155.96V155.95Z" fill="#343430"></path><path d="M128.66 204.54C128.81 203.5 128.68 201.03 128.45 198.2C132.02 200.11 137.2 204.1 140.43 211.39C144.33 220.2 144.64 236.05 144.59 242.56C134.9 236.82 124.55 231.61 122.95 231.61L121.27 213.5C121.27 213.5 128.2 207.69 128.65 204.56L128.66 204.54Z" fill="#F6B79E"></path><path d="M140.44 211.38C137.21 204.09 132.03 200.11 128.46 198.19C128.12 194.03 127.56 189.09 127.27 186.72C132.89 192.17 141.61 198.49 145.66 198.49C151.25 198.49 155.33 193.12 155.33 193.12V188.87V179.99C156.71 185.62 157.64 190.33 157.51 192.45C157.51 192.47 157.51 192.49 157.51 192.5C157.26 196.37 154.76 201.56 152.37 206.41C150.2 210.82 148.11 214.94 147.9 217.49C147.55 221.65 149.63 238.03 152.58 247.51C150.13 245.88 147.39 244.19 144.6 242.54C144.65 236.03 144.35 220.18 140.44 211.37V211.38Z" fill="#E9937B"></path><path d="M121.28 156.01C128.21 145.05 142.3 158.02 144.09 159.14C144.75 159.55 146.44 160.84 148.32 162.3C149.25 163.02 150.22 163.79 151.14 164.51C153.41 166.31 155.33 167.85 155.33 167.85V179.99V188.87V193.12C155.33 193.12 151.25 198.49 145.66 198.49C141.61 198.49 132.89 192.16 127.27 186.72C125.13 184.65 123.43 182.69 122.63 181.28C121.75 179.72 120.64 177.78 119.72 175.55C117.6 170.41 116.46 163.65 121.29 156.01H121.28Z" fill="#F6B79E"></path><path d="M84.1599 123.58C84.3799 102.11 96.0099 84.45 101.83 76.67C107.64 68.9 113.46 56.04 121.28 52.69C129.11 49.34 156.39 47.55 161.08 50.45C165.78 53.36 196.41 51.12 214.3 52.91C232.19 54.7 234.98 58.28 234.98 58.28C234.98 58.28 241.58 75.5 241.02 85.11C240.46 94.73 232.63 101.88 232.63 101.88C232.63 101.88 201.55 94.95 191.42 92.04C181.29 89.13 172.25 88.91 172.25 88.91C172.25 88.91 169.57 92.04 168.9 95.39C168.23 98.74 172.93 118.2 173.82 123.34C174.71 128.48 168.01 131.84 165.1 137.43C162.19 143.02 162.19 154.87 162.19 154.87C162.19 154.87 159.28 159.12 161.07 163.81C162.86 168.51 160.4 182.15 163.53 187.96C165.19 191.04 169.22 196.55 173.48 201.59C177.27 206.08 181.24 210.2 183.87 211.88C189.46 215.46 209.81 211.21 215.4 207.41C220.99 203.61 234.55 189.74 239.4 188.4C243.02 187.4 246.54 188.02 248.1 188.4C248.63 188.53 248.94 188.63 248.94 188.63C248.94 188.63 258.11 192.43 256.32 199.59C255.87 201.41 255.31 202.86 254.74 204.02C253.13 203.07 250.79 202.02 248.5 202.27C244.47 202.72 234.97 206.74 234.97 206.74L229.27 210.77C229.27 210.77 239.33 213.45 247.16 214.12C249.06 214.28 250.81 214.37 252.37 214.4L252.97 217.48C252.97 217.48 262.36 244.31 264.15 256.84C265.94 269.36 255.88 293.96 255.88 293.96C255.88 293.96 250.08 298.79 225.24 291.95C218.32 290.04 210.16 286.6 201.9 282.53C192.73 278 183.43 272.69 175.55 267.82C174.17 266.97 172.84 266.13 171.56 265.31C166.87 260.18 162.73 255.73 160.5 253.55C158.77 251.86 155.92 249.74 152.54 247.51C149.59 238.03 147.51 221.65 147.86 217.49C148.07 214.94 150.16 210.82 152.33 206.41C154.72 201.56 157.22 196.37 157.47 192.5C157.47 192.48 157.47 192.46 157.47 192.45C157.6 190.33 156.67 185.62 155.29 179.99V167.85C155.29 167.85 153.37 166.3 151.1 164.51C150.18 163.78 149.21 163.02 148.28 162.3C146.4 160.84 144.71 159.55 144.05 159.14C142.26 158.02 128.17 145.05 121.24 156.01C116.41 163.64 117.55 170.4 119.67 175.55C120.59 177.79 121.7 179.72 122.58 181.28C123.38 182.7 125.09 184.65 127.22 186.72C127.5 189.09 128.07 194.03 128.41 198.19C128.64 201.02 128.76 203.49 128.62 204.53C128.17 207.66 121.24 213.47 121.24 213.47C121.24 213.47 116.54 211.46 114.53 208.31C112.52 205.16 99.5499 186.86 91.2699 172.32C82.9999 157.78 83.8899 145.04 84.1099 123.57L84.1599 123.58Z" fill="#2E140D"></path><path d="M204.91 649.22C208.98 649.85 213.81 650.75 217.22 651.88C223.36 653.93 250.85 666.43 263.04 671.82C264.83 672.61 266.29 673.25 267.31 673.68C275.25 677.03 293.36 683.07 290.68 689.11C289.97 690.71 288.73 691.94 287.15 692.84C285.38 692.39 283.52 691.82 281.96 691.12C277.4 689.07 278.61 682.74 278.61 682.74C278.61 682.74 264.81 679.11 251.79 675.95C239.46 672.95 227.83 670.37 229.3 671.67C230.77 672.97 233.15 677.6 235.21 682.02L227.08 685C221.68 679.3 212.63 675.13 206.81 671.33C203.88 669.42 199.91 666.22 196.09 662.98C200.71 656.23 204.91 649.23 204.91 649.23V649.22Z" fill="#F6B79E"></path><path d="M180.9 679.68C184.01 677.05 186.6 674.78 188.03 673.36C190.31 671.08 193.28 667.08 196.08 662.98C199.89 666.22 203.87 669.42 206.8 671.33C212.62 675.13 221.67 679.3 227.07 685L235.2 682.02C233.14 677.61 230.75 672.98 229.29 671.67C227.82 670.36 239.45 672.95 251.78 675.95C264.8 679.12 278.6 682.74 278.6 682.74C278.6 682.74 277.39 689.07 281.95 691.12C283.51 691.82 285.36 692.39 287.14 692.84C282.73 695.34 275.53 695.18 268.87 692.46C259.81 688.77 246.33 683.07 244.01 684.07C242.64 684.67 240.32 687.28 239.21 691.11C238.79 692.56 238.54 694.17 238.59 695.93C238.63 697.37 238.86 698.91 239.35 700.51C239.85 702.13 240.38 703.9 240.88 705.71C241.79 709.02 242.57 712.49 242.84 715.49C243.21 719.71 242.56 723.01 239.68 723.65C238.85 723.83 238.11 723.92 237.42 723.97C237.06 722.55 236.72 721.21 236.4 719.96L237.42 723.97C233.08 724.24 231.21 722.2 228.61 723.65C225.59 725.33 225.93 730.36 220.56 730.69C215.19 731.03 213.52 728.34 209.83 729.01C206.14 729.68 205.13 734.82 200.1 733.93C195.07 733.04 186.01 733.04 181.65 729.68C178.95 727.6 177.32 723.34 175.26 719.44C174.75 718.48 174.22 717.55 173.64 716.68C173.13 715.91 172.59 715.19 171.99 714.54C171.56 714.07 171.12 713.63 170.63 713.25C168.98 711.94 167.04 710 165.18 707.64C162.84 704.66 160.66 701.01 159.41 697.13C164.77 692.87 174.09 685.4 180.89 679.66L180.9 679.68Z" fill="#E9937B"></path><path d="M148.06 680.24C151.64 674.98 155.25 669.95 158.41 666.82C159.92 665.32 161.99 663.25 164.34 660.88C171.51 653.66 181.41 643.6 187.04 637.87L204.9 649.22C204.9 649.22 200.7 656.23 196.08 662.97C193.27 667.07 190.31 671.07 188.03 673.35C186.61 674.77 184.02 677.04 180.9 679.67C174.11 685.41 164.79 692.87 159.42 697.14C156.82 699.21 155.15 700.52 155.15 700.52L152.08 697.17L143.2 687.45C144.78 685.1 146.41 682.65 148.05 680.24H148.06Z" fill="#C7E6F8"></path><path d="M7.56996 473.77C10.59 476.79 5.88997 504.63 11.26 526.43C16.6 548.14 15.39 577.07 15.38 577.33C11.38 571.93 8.27995 566.67 6.89995 561.99C0.85995 541.53 -2.83005 531.8 3.20995 485.85C3.72995 481.91 4.27996 478.06 4.84996 474.3C5.89996 473.4 6.85996 473.06 7.56996 473.78V473.77Z" fill="#91694E"></path><path d="M19.6499 405.35C19.6499 405.35 12.9399 332.9 35.7499 305.73C35.7499 305.73 35.7599 305.71 35.7899 305.68C58.58 278.56 80.3599 280.9 80.3599 280.9C80.3599 280.9 110.33 276.09 119.36 315.61C119.83 317.68 120.26 319.83 120.61 322.15C127.65 368.77 106.86 462.02 103.84 472.76C100.82 483.49 90.4199 520.39 90.4199 520.39C90.4199 520.39 90.4199 529.78 98.8099 536.83C107.2 543.87 130.34 570.71 141.75 582.45C142.38 583.1 143.1 583.84 143.88 584.64C146.96 587.81 151.13 592.09 155.75 596.82C156.07 597.15 156.39 597.47 156.71 597.8C160.78 601.97 165.13 606.44 169.34 610.75C180.96 622.66 191.44 633.4 191.44 633.4C191.44 633.4 189.72 635.15 187.05 637.86C181.42 643.59 171.51 653.66 164.35 660.87C161.99 663.24 159.93 665.31 158.42 666.81C155.26 669.94 151.65 674.97 148.07 680.23C146.43 682.64 144.8 685.09 143.22 687.44C139.21 693.4 135.55 698.64 133.02 700.51C131.04 701.98 128.94 703.11 127.03 703.97C123.47 705.58 120.62 706.21 120.62 706.21C120.62 706.21 115.36 690.62 108.27 677.79C105.55 672.87 102.56 668.36 99.4899 665.29C88.4199 654.22 62.9299 626.72 57.2299 620.34C54.4899 617.28 44.17 608.41 33.5099 597.76C27.0499 591.3 20.4799 584.2 15.39 577.32C15.3999 577.06 16.6199 548.13 11.2699 526.42C5.89993 504.62 10.5999 476.78 7.57993 473.76C6.86992 473.05 5.90993 473.38 4.85992 474.28C10.9599 434.21 19.6499 405.33 19.6499 405.33V405.35Z" fill="#443D49"></path></g></g><path fill-rule="evenodd" clip-rule="evenodd" d="M346.847 57.7193C351.347 26.1112 379.539 3.98263 409.809 8.29289L667.592 45.0004C697.864 49.311 718.756 78.4284 714.255 110.037L617.984 786.115C613.483 817.723 585.291 839.852 555.022 835.542L297.238 798.834C266.966 794.524 246.074 765.406 250.575 733.798L346.847 57.7193Z" fill="#3E4A4D"></path><path fill-rule="evenodd" clip-rule="evenodd" d="M410.028 12.8867L666.1 49.3506C694.48 53.3917 714.065 80.6906 709.845 110.324L613.829 784.61C609.61 814.243 583.183 834.99 554.803 830.949L298.731 794.485C270.351 790.444 250.766 763.145 254.985 733.511L351.001 59.2262C355.221 29.5925 381.648 8.84558 410.028 12.8867Z" fill="#133138"></path><rect x="708.543" y="113.332" width="5.19041" height="10.8396" transform="rotate(8.10424 708.543 113.332)" fill="#133138"></rect><rect x="346.273" y="61.7461" width="5.19041" height="10.8396" transform="rotate(8.10424 346.273 61.7461)" fill="#133138"></rect><rect x="614.819" y="771.52" width="5.19041" height="10.8396" transform="rotate(8.10424 614.819 771.52)" fill="#133138"></rect><rect x="252.55" y="719.934" width="5.19041" height="10.8396" transform="rotate(8.10424 252.55 719.934)" fill="#133138"></rect><path fill-rule="evenodd" clip-rule="evenodd" d="M461.286 769.731C458.965 786.029 444.43 797.44 428.821 795.217C413.212 792.995 402.44 777.98 404.761 761.682C407.082 745.383 421.617 733.972 437.226 736.195C452.835 738.418 463.607 753.432 461.286 769.731ZM457.432 769.183C455.428 783.259 442.875 793.114 429.395 791.194C415.914 789.275 406.611 776.308 408.616 762.232C410.62 748.156 423.173 738.301 436.653 740.22C450.133 742.14 459.437 755.107 457.432 769.183Z" fill="#3E4A4D"></path><path fill-rule="evenodd" clip-rule="evenodd" d="M472.979 77.0516C477 77.6241 480.743 74.6849 481.341 70.4868C481.939 66.2887 479.164 62.4214 475.144 61.8489C471.123 61.2764 467.38 64.2155 466.782 68.4136C466.184 72.6117 468.959 76.4791 472.979 77.0516Z" fill="#3E4A4D"></path><path fill-rule="evenodd" clip-rule="evenodd" d="M534.307 57.4998C536.672 57.8366 538.874 56.1077 539.226 53.6382C539.577 51.1687 537.945 48.8938 535.58 48.557C533.215 48.2203 531.013 49.9492 530.661 52.4187C530.31 54.8881 531.942 57.163 534.307 57.4998Z" fill="#3E4A4D"></path><path fill-rule="evenodd" clip-rule="evenodd" d="M502.768 70.3448L561.005 78.6376C562.661 78.8733 563.803 80.4657 563.557 82.1944C563.311 83.923 561.77 85.1333 560.114 84.8975L501.877 76.6047C500.221 76.369 499.079 74.7766 499.325 73.0479C499.571 71.3193 501.113 70.1091 502.768 70.3448" fill="#3E4A4D"></path><path d="M327.142 171.551C327.412 169.659 329.164 168.343 331.056 168.613V168.613L322.651 227.635V227.635C320.759 227.366 319.444 225.614 319.713 223.722L327.142 171.551Z" fill="#3E4A4D"></path><path d="M316.891 243.54C317.161 241.648 318.913 240.333 320.805 240.602V240.602L312.4 299.624V299.624C310.508 299.355 309.193 297.603 309.462 295.711L316.891 243.54Z" fill="#3E4A4D"></path><path d="M336.82 103.585C337.09 101.693 338.842 100.378 340.734 100.647V100.647L336.15 132.841V132.841C334.258 132.572 332.942 130.82 333.212 128.928L336.82 103.585Z" fill="#3E4A4D"></path><path d="M698.464 220.93V220.93C700.356 221.2 701.672 222.952 701.402 224.844L693.973 277.015C693.704 278.907 691.952 280.222 690.06 279.953V279.953L698.464 220.93Z" fill="#3E4A4D"></path><path fill-rule="evenodd" clip-rule="evenodd" d="M363.811 101.196L684.972 146.929L600.035 743.412L278.874 697.679L363.811 101.196Z" fill="#212121"></path><path d="M373.523 388.205L361.847 410.104L358.419 409.616L371.685 385.653L373.895 385.967L373.523 388.205ZM377.266 412.299L372.149 388.009L372.416 385.757L374.626 386.072L380.711 412.79L377.266 412.299ZM378.166 402.857L377.775 405.607L363.539 403.58L363.931 400.83L378.166 402.857ZM390.961 414.25L385.671 413.496L386.095 410.769L391.351 411.517C393.16 411.775 394.722 411.613 396.036 411.031C397.352 410.437 398.409 409.498 399.207 408.215C400.019 406.922 400.556 405.353 400.818 403.508L401.039 401.96C401.245 400.509 401.255 399.197 401.067 398.022C400.881 396.835 400.507 395.806 399.944 394.932C399.384 394.048 398.645 393.333 397.728 392.788C396.823 392.245 395.744 391.884 394.491 391.706L388.783 390.893L389.175 388.143L394.883 388.956C396.542 389.192 398.016 389.686 399.306 390.438C400.597 391.178 401.662 392.141 402.499 393.325C403.35 394.5 403.937 395.862 404.261 397.411C404.587 398.949 404.619 400.635 404.358 402.468L404.142 403.982C403.881 405.815 403.379 407.43 402.635 408.827C401.894 410.213 400.944 411.351 399.788 412.239C398.643 413.13 397.324 413.753 395.829 414.108C394.347 414.454 392.725 414.501 390.961 414.25ZM391.072 388.413L387.464 413.751L384.105 413.273L387.713 387.935L391.072 388.413ZM414.351 417.58L409.06 416.827L409.484 414.1L414.74 414.848C416.549 415.106 418.111 414.943 419.425 414.361C420.741 413.767 421.798 412.829 422.596 411.546C423.408 410.252 423.945 408.684 424.207 406.839L424.428 405.29C424.634 403.84 424.644 402.527 424.456 401.352C424.27 400.166 423.896 399.136 423.333 398.263C422.773 397.378 422.034 396.663 421.117 396.119C420.212 395.575 419.133 395.215 417.88 395.036L412.172 394.223L412.564 391.474L418.272 392.287C419.931 392.523 421.405 393.017 422.695 393.769C423.986 394.509 425.051 395.471 425.888 396.656C426.739 397.83 427.326 399.193 427.65 400.742C427.976 402.28 428.008 403.965 427.747 405.798L427.531 407.312C427.27 409.145 426.768 410.761 426.024 412.158C425.283 413.544 424.334 414.681 423.177 415.57C422.032 416.46 420.713 417.083 419.218 417.439C417.736 417.784 416.114 417.831 414.351 417.58ZM414.461 391.744L410.853 417.082L407.494 416.604L411.102 391.266L414.461 391.744ZM446.934 396.368L443.326 421.706L439.967 421.228L443.575 395.89L446.934 396.368ZM454.104 397.389L457.358 397.852L462.718 419.691L473.943 400.214L477.214 400.68L463.304 424.551L460.763 424.189L454.104 397.389ZM453.042 397.238L455.914 397.647L454.183 413.167L452.775 423.052L449.434 422.576L453.042 397.238ZM475.387 400.42L478.259 400.828L474.65 426.167L471.309 425.691L472.717 415.806L475.387 400.42ZM493.532 405.294L481.855 427.193L478.427 426.704L491.693 402.742L493.903 403.056L493.532 405.294ZM497.274 429.388L492.157 405.098L492.424 402.846L494.634 403.16L500.72 429.879L497.274 429.388ZM498.174 419.946L497.783 422.696L483.548 420.669L483.939 417.919L498.174 419.946ZM524.426 420.382L523.105 429.657C522.726 430.077 522.153 430.528 521.386 431.01C520.62 431.481 519.604 431.846 518.336 432.103C517.081 432.351 515.509 432.34 513.618 432.07C512.074 431.851 510.691 431.382 509.468 430.663C508.258 429.934 507.25 428.986 506.446 427.818C505.655 426.64 505.104 425.271 504.794 423.712C504.496 422.143 504.482 420.412 504.752 418.521L505.032 416.555C505.301 414.664 505.762 413.007 506.414 411.585C507.078 410.164 507.918 409 508.936 408.091C509.954 407.171 511.134 406.534 512.475 406.18C513.817 405.815 515.306 405.749 516.942 405.982C518.879 406.258 520.45 406.825 521.653 407.682C522.87 408.53 523.761 409.592 524.325 410.868C524.9 412.146 525.186 413.548 525.182 415.074L521.823 414.596C521.803 413.658 521.62 412.779 521.275 411.961C520.942 411.144 520.395 410.451 519.636 409.881C518.878 409.3 517.85 408.916 516.55 408.731C515.379 408.564 514.333 408.635 513.413 408.942C512.494 409.249 511.698 409.763 511.027 410.484C510.356 411.205 509.801 412.114 509.361 413.212C508.932 414.311 508.616 415.574 508.413 417.001L508.128 419.002C507.92 420.464 507.902 421.793 508.075 422.989C508.259 424.188 508.613 425.238 509.135 426.141C509.659 427.032 510.332 427.75 511.155 428.293C511.989 428.838 512.945 429.187 514.024 429.341C515.219 429.511 516.202 429.55 516.972 429.459C517.745 429.356 518.359 429.195 518.817 428.976C519.276 428.745 519.633 428.518 519.89 428.294L520.698 422.621L514.833 421.786L515.22 419.071L524.426 420.382ZM544.685 433.352L544.296 436.084L530.878 434.173L531.267 431.441L544.685 433.352ZM535.165 408.932L531.557 434.27L528.198 433.792L531.806 408.453L535.165 408.932ZM544.577 421.387L544.188 424.119L532.546 422.461L532.935 419.729L544.577 421.387ZM547.73 410.721L547.338 413.47L534.095 411.585L534.486 408.835L547.73 410.721ZM373.541 439.456L373.152 442.188L359.438 440.235L359.828 437.503L373.541 439.456ZM361.901 426.683L358.293 452.021L354.934 451.543L358.542 426.205L361.901 426.683ZM378.016 428.978L374.408 454.316L371.066 453.84L374.674 428.502L378.016 428.978ZM396.863 454.726L396.474 457.458L383.057 455.548L383.446 452.815L396.863 454.726ZM387.343 430.306L383.735 455.644L380.377 455.166L383.985 429.828L387.343 430.306ZM396.756 442.761L396.367 445.494L384.724 443.836L385.113 441.103L396.756 442.761ZM399.908 432.095L399.517 434.845L386.273 432.959L386.665 430.209L399.908 432.095ZM404.241 432.712L412.629 433.907C414.532 434.178 416.098 434.697 417.326 435.463C418.566 436.232 419.447 437.233 419.97 438.468C420.506 439.692 420.656 441.128 420.422 442.775C420.257 443.936 419.868 444.963 419.255 445.859C418.655 446.744 417.867 447.46 416.889 448.007C415.925 448.545 414.811 448.889 413.546 449.041L412.554 449.272L404.671 448.15L405.025 445.413L410.977 446.26C412.183 446.432 413.217 446.366 414.077 446.062C414.938 445.747 415.623 445.259 416.132 444.597C416.64 443.936 416.957 443.17 417.08 442.3C417.219 441.325 417.149 440.445 416.87 439.66C416.592 438.874 416.069 438.226 415.301 437.714C414.547 437.192 413.526 436.84 412.238 436.656L407.209 435.94L403.992 458.529L400.633 458.05L404.241 432.712ZM415.443 460.159L410.918 447.796L414.418 448.277L419.058 460.461L419.028 460.67L415.443 460.159ZM439.082 460.738L438.693 463.47L425.275 461.559L425.664 458.827L439.082 460.738ZM429.562 436.318L425.954 461.656L422.595 461.178L426.203 435.84L429.562 436.318ZM438.974 448.773L438.585 451.505L426.943 449.847L427.332 447.115L438.974 448.773ZM442.127 438.107L441.735 440.857L428.492 438.971L428.883 436.221L442.127 438.107Z" fill="white"></path><path d="M650.54 139.468L397.413 103.424C382.836 101.348 369.428 110.577 367.516 124.003L289.613 671.086C287.703 684.505 298 697.117 312.578 699.193L565.705 735.237C574.052 736.426 582.244 733.977 588.177 728.518C590.662 726.241 592.584 723.562 593.893 720.568C594.742 718.628 595.319 716.643 595.601 714.665L673.504 167.575C675.415 154.156 665.118 141.544 650.54 139.468Z" fill="#0093B2"></path><path d="M655.491 139.7L606.617 132.741C592.261 130.696 595.137 131.106 582.61 129.322L470.871 113.411C458.344 111.627 456.93 111.426 441.066 109.167L392.191 102.207C380.249 100.507 369.285 107.887 367.751 118.658L301.148 586.389C301.386 584.716 301.875 583.144 302.53 581.654C303.61 579.222 305.204 577.073 307.19 575.286C311.819 571.115 318.524 568.932 325.588 569.938L588.88 607.43C600.822 609.13 609.291 619.278 607.757 630.049L674.36 162.318C675.894 151.547 667.425 141.4 655.483 139.699L655.491 139.7Z" fill="#0093B2"></path><path d="M545.921 368.524L532.537 459.831L566.541 464.816L589.665 307.063L554.758 301.946L491.333 382.143L453.591 287.117L418.685 282L395.561 439.753L429.565 444.737L442.949 353.43L481.364 450.151L545.921 368.524Z" fill="white"></path><path d="M432.165 484.501L422.227 483.044L419.086 488.923L415.861 488.45L428.395 466.059L431.131 466.46L436.726 491.509L433.52 491.039L432.165 484.501ZM423.55 480.624L431.613 481.806L429.2 470.12L423.55 480.624Z" fill="white"></path><path d="M443.279 492.47L440.152 492.012L443.629 468.293L446.756 468.751L443.279 492.47Z" fill="white"></path><path d="M448.997 493.308L452.473 469.589L459.169 470.571C461.233 470.873 462.989 471.596 464.442 472.741C465.895 473.885 466.93 475.362 467.546 477.173C468.163 478.983 468.317 480.98 468.009 483.164L467.787 484.678C467.459 486.915 466.74 488.812 465.63 490.369C464.521 491.926 463.097 493.037 461.363 493.705C459.629 494.373 457.696 494.558 455.565 494.271L448.997 493.308ZM455.226 472.604L452.499 491.207L455.791 491.69C458.201 492.043 460.186 491.567 461.749 490.266C463.312 488.964 464.294 486.926 464.7 484.154L464.904 482.768C465.299 480.072 464.974 477.885 463.928 476.205C462.883 474.524 461.198 473.504 458.879 473.142L455.226 472.607L455.226 472.604Z" fill="white"></path><path d="M484.883 492.228L474.944 490.771L471.803 496.651L468.579 496.178L481.113 473.787L483.848 474.188L489.444 499.236L486.234 498.766L484.883 492.228ZM476.264 488.351L484.328 489.533L481.915 477.847L476.264 488.351Z" fill="white"></path><path d="M510.868 502.377L507.725 501.916L498.463 481.887L495.784 500.166L492.641 499.705L496.118 475.986L499.26 476.447L508.544 496.563L511.235 478.202L514.348 478.658L510.871 502.377L510.868 502.377Z" fill="white"></path><path d="M535.911 484.43L528.288 483.313L525.187 504.473L522.075 504.017L525.176 482.857L517.569 481.742L517.944 479.183L536.286 481.871L535.911 484.43Z" fill="white"></path><defs><clipPath id="clip0_26_10492"><rect width="325" height="786" fill="white" transform="matrix(-1 0 0 1 325 48)"></rect></clipPath><clipPath id="clip1_26_10492"><rect width="325" height="1433" fill="white" transform="matrix(-1 0 0 1 325 48)"></rect></clipPath></defs></svg>