<svg xmlns="http://www.w3.org/2000/svg" width="470" height="746" viewBox="0 0 470 746" fill="none"><g clip-path="url(#clip0_93_2684)"><path d="M260.143 97.2502C260.143 97.2502 262.994 98.7705 263.364 99.7205C263.734 100.67 262.223 104.08 262.223 104.08L259.373 105.22L260.134 97.2502H260.143Z" fill="#2E140B"></path><path d="M143.674 98.0103C144.054 90.6103 149.554 86.8202 155.814 85.4902C158.684 84.8802 161.684 86.3504 164.074 88.1204C166.904 90.2004 168.904 92.7004 168.904 92.7004C168.904 92.7004 168.913 92.7203 168.933 92.7603C168.953 92.8003 168.984 92.8704 169.024 92.9404C169.034 92.9704 169.054 93.0103 169.074 93.0503C169.104 93.1003 169.133 93.1702 169.163 93.2302C169.193 93.2902 169.224 93.3604 169.254 93.4304C169.274 93.4804 169.303 93.5403 169.333 93.6003C169.413 93.7603 169.493 93.9504 169.583 94.1504C169.613 94.2004 169.633 94.2603 169.663 94.3103C169.723 94.4303 169.784 94.5704 169.844 94.7004C169.874 94.7504 169.894 94.8104 169.924 94.8704C170.154 95.3604 170.394 95.9002 170.654 96.4802C170.654 96.5002 170.673 96.5203 170.683 96.5403C170.773 96.7303 170.854 96.9204 170.944 97.1204C170.964 97.1604 170.973 97.2002 170.993 97.2402C171.253 97.8302 171.514 98.4303 171.774 99.0303C171.794 99.0903 171.824 99.1504 171.844 99.2004C171.924 99.3804 171.994 99.5602 172.074 99.7402C172.104 99.8002 172.124 99.8604 172.154 99.9204C172.314 100.31 172.463 100.69 172.603 101.05C172.713 101.32 172.804 101.58 172.904 101.83C172.904 101.84 172.903 101.85 172.913 101.86C172.993 102.09 173.074 102.3 173.134 102.5C173.134 102.53 173.153 102.56 173.163 102.59C173.223 102.78 173.274 102.94 173.324 103.1C173.324 103.13 173.343 103.18 173.353 103.21C173.403 103.39 173.444 103.56 173.464 103.7C173.844 105.98 172.323 109.39 171.373 113.18C170.423 116.97 169.664 122.66 169.284 127.79C168.904 132.91 168.904 136.14 168.714 140.12C168.704 140.38 168.673 140.63 168.623 140.87C168.613 140.95 168.584 141.02 168.564 141.09C168.524 141.24 168.483 141.4 168.433 141.54C168.403 141.62 168.373 141.69 168.333 141.76C168.283 141.89 168.224 142.01 168.154 142.13C168.114 142.2 168.074 142.26 168.024 142.33C167.954 142.44 167.884 142.55 167.794 142.64C167.744 142.7 167.704 142.75 167.654 142.81C167.564 142.91 167.473 143 167.373 143.09C167.323 143.13 167.273 143.18 167.223 143.22C167.113 143.31 167.004 143.39 166.884 143.46C166.834 143.49 166.793 143.52 166.743 143.55C166.603 143.63 166.464 143.7 166.324 143.77C166.294 143.79 166.253 143.8 166.223 143.82C166.043 143.9 165.864 143.96 165.674 144.02C165.374 144.11 165.053 144.16 164.743 144.19C164.713 144.19 164.693 144.19 164.663 144.19C164.363 144.22 164.064 144.22 163.764 144.19C163.724 144.19 163.683 144.19 163.643 144.19C163.353 144.16 163.064 144.12 162.784 144.05C162.754 144.05 162.723 144.03 162.683 144.02C162.393 143.94 162.124 143.85 161.864 143.73C159.394 142.59 158.263 140.13 156.933 138.04C155.603 135.95 149.344 127.23 147.634 123.81C147.584 123.72 147.543 123.62 147.493 123.51C147.493 123.49 147.474 123.46 147.464 123.44C147.424 123.35 147.384 123.26 147.344 123.15C147.334 123.12 147.324 123.1 147.314 123.07C147.274 122.97 147.234 122.86 147.194 122.75C147.194 122.73 147.174 122.7 147.174 122.68C147.134 122.56 147.084 122.43 147.044 122.3C147.044 122.28 147.034 122.26 147.024 122.25C146.974 122.11 146.934 121.96 146.884 121.81C146.884 121.81 146.884 121.79 146.884 121.78C146.834 121.62 146.784 121.45 146.734 121.27C146.734 121.27 146.734 121.27 146.734 121.26C146.634 120.89 146.524 120.51 146.424 120.09C146.194 119.2 145.963 118.21 145.743 117.15V117.13C145.593 116.44 145.454 115.71 145.314 114.97C145.314 114.94 145.304 114.91 145.294 114.89C145.224 114.52 145.154 114.14 145.094 113.76C145.094 113.76 145.094 113.74 145.094 113.73C145.034 113.37 144.973 113.01 144.913 112.65C144.913 112.6 144.894 112.55 144.884 112.5C144.824 112.13 144.763 111.75 144.703 111.37C144.703 111.35 144.704 111.32 144.694 111.3C144.644 110.95 144.584 110.6 144.534 110.25C144.534 110.18 144.514 110.11 144.504 110.04C144.454 109.67 144.403 109.3 144.353 108.93C144.353 108.89 144.354 108.85 144.344 108.82C144.304 108.49 144.254 108.15 144.214 107.82C144.214 107.74 144.193 107.66 144.183 107.57C144.143 107.21 144.094 106.84 144.064 106.48C144.064 106.45 144.064 106.42 144.054 106.38C144.014 106.05 143.983 105.72 143.953 105.4C143.953 105.31 143.934 105.22 143.924 105.14C143.894 104.79 143.863 104.44 143.833 104.09C143.833 104.07 143.833 104.05 143.833 104.03C143.803 103.7 143.784 103.38 143.764 103.06C143.764 102.97 143.753 102.89 143.743 102.8C143.723 102.46 143.703 102.13 143.683 101.81C143.613 100.42 143.603 99.1303 143.663 98.0203L143.674 98.0103Z" fill="#F4B59C"></path><path d="M165.683 143.99C165.873 143.94 166.054 143.87 166.234 143.79C166.264 143.78 166.303 143.76 166.333 143.74C166.473 143.68 166.614 143.6 166.754 143.52C166.804 143.49 166.843 143.46 166.893 143.43C167.013 143.35 167.124 143.27 167.234 143.19C167.284 143.15 167.334 143.11 167.384 143.06C167.484 142.97 167.573 142.88 167.663 142.78C167.713 142.73 167.763 142.67 167.803 142.61C167.883 142.51 167.953 142.4 168.033 142.3C168.073 142.23 168.123 142.17 168.163 142.1C168.233 141.98 168.283 141.86 168.343 141.73C168.373 141.66 168.414 141.58 168.444 141.51C168.494 141.37 168.533 141.22 168.573 141.06C168.593 140.99 168.614 140.92 168.634 140.84C168.684 140.6 168.713 140.36 168.723 140.09C168.913 136.11 168.914 132.88 169.294 127.76C169.674 122.64 170.434 116.95 171.384 113.15C172.334 109.36 173.853 105.94 173.473 103.67C173.453 103.53 173.414 103.37 173.364 103.18C173.364 103.15 173.343 103.11 173.333 103.07C173.283 102.91 173.244 102.74 173.174 102.56C173.174 102.53 173.153 102.5 173.143 102.47C173.073 102.27 173.004 102.05 172.924 101.83C172.924 101.82 172.923 101.81 172.913 101.8C172.823 101.55 172.724 101.29 172.614 101.02C172.474 100.66 172.323 100.28 172.163 99.8903C172.133 99.8303 172.113 99.7704 172.083 99.7104C172.063 99.6504 172.033 99.6002 172.013 99.5402C171.963 99.4202 171.913 99.2904 171.853 99.1704C171.833 99.1104 171.803 99.0602 171.783 99.0002C171.533 98.4002 171.264 97.8004 171.004 97.2104C170.984 97.1704 170.973 97.1303 170.953 97.1003C170.863 96.9003 170.774 96.7102 170.694 96.5102C170.694 96.5002 170.684 96.4804 170.674 96.4704C170.674 96.4704 170.674 96.4604 170.674 96.4504C170.554 96.1904 170.443 95.9404 170.333 95.6904C170.303 95.6304 170.284 95.5802 170.254 95.5202C170.144 95.2902 170.044 95.0603 169.944 94.8403C169.914 94.7903 169.893 94.7304 169.873 94.6804C169.823 94.5604 169.764 94.4503 169.714 94.3403C169.714 94.3203 169.693 94.3002 169.683 94.2802C169.663 94.2302 169.643 94.1903 169.623 94.1503C169.623 94.1303 169.603 94.1203 169.603 94.1003C169.513 93.9103 169.433 93.7303 169.353 93.5703C169.323 93.5103 169.304 93.4503 169.274 93.4003C169.244 93.3303 169.214 93.2804 169.194 93.2204C169.194 93.2204 169.193 93.2004 169.183 93.2004C169.153 93.1304 169.123 93.0702 169.093 93.0202C169.073 92.9802 169.064 92.9504 169.044 92.9104C169.004 92.8304 168.973 92.7702 168.953 92.7302C169.333 92.7102 169.704 92.6904 170.064 92.6704C174.174 92.4804 175.523 92.9002 176.283 94.2902C177.073 95.7302 177.243 98.2104 179.163 102.16C182.953 109.94 181.064 113.92 181.064 113.92L186.013 115.16L190.933 116.39C190.933 116.39 190.174 106.15 190.174 103.49C190.174 100.83 191.124 98.3704 193.214 90.9704C195.304 83.5704 206.683 78.8304 210.283 76.9304C213.883 75.0304 211.424 71.6203 209.524 69.9103C207.624 68.2003 206.674 63.8402 207.814 59.4802C208.954 55.1202 218.624 53.0302 224.694 51.5102C230.764 49.9902 236.074 50.9403 238.924 51.8903C241.774 52.8403 254.663 56.2502 254.663 56.2502C254.663 56.2502 255.803 72.5603 257.703 77.8803C259.603 83.1903 261.494 94.9502 261.114 101.02C260.734 107.09 257.704 105.95 260.734 112.78C263.774 119.61 269.083 127.2 270.593 128.71C272.113 130.23 274.003 136.68 270.593 138.95C267.183 141.23 258.453 143.5 258.453 143.5C258.453 143.5 254.664 146.16 255.794 148.81C256.404 150.23 256.893 152.07 257.053 153.66C254.273 153.42 250.353 153.1 248.393 152.98C245.173 152.79 231.134 153.93 231.134 153.93V156.59C231.134 156.59 233.603 162.28 237.203 163.61C240.803 164.94 249.344 167.4 250.674 169.11C252.004 170.82 251.243 174.23 251.243 174.23C251.243 174.23 249.344 182.96 250.484 187.51C251.444 191.34 252.913 198.37 250.433 201.19C249.983 201.4 249.553 201.59 249.143 201.75C242.383 204.46 241.084 200.45 230.364 195.09C218.984 189.4 208.734 179.91 192.424 174.6C176.114 169.29 173.834 163.98 167.384 149.56C166.624 147.86 166.073 145.96 165.683 143.95V143.99Z" fill="#F4B59C"></path><path d="M214.043 277.84L214.303 274.98C215.433 275.41 216.683 275.79 217.363 275.66C218.783 275.38 218.503 282.2 218.503 284.77C218.503 285.82 218.743 288.62 219.023 291.57C214.123 284.9 208.113 276.94 202.503 269.79L214.053 277.85L214.043 277.84Z" fill="#8A9FAB"></path><path d="M381.454 487.22L415.714 457.19C416.694 458.46 417.594 460.53 416.264 463.18C413.984 467.73 406.024 471.72 401.754 476.27C399.594 478.58 395.024 483.29 391.034 487.38C389.124 489.34 387.344 491.16 386.034 492.5C384.854 490.58 383.214 488.8 381.454 487.22Z" fill="#CE826F"></path><path d="M321.222 580.02C321.792 578.5 325.582 573 326.912 568.83C328.242 564.66 337.342 554.41 340.002 550.62C340.862 549.38 342.352 548.03 343.972 546.76C343.882 546.78 343.802 546.8 343.702 546.82C343.302 546.9 342.912 546.96 342.522 547.02L349.482 538.48L363.332 529.37C363.332 529.37 351.572 544.74 347.402 551.37C343.232 558.01 336.022 569.58 333.932 573.56C331.842 577.54 321.032 584.37 318.002 584.37C319.712 584.18 320.662 581.52 321.222 580.01V580.02Z" fill="#D1D2D2"></path><path d="M329.193 543.7C333.883 546.56 337.383 547.75 342.303 547.07C339.343 549.24 336.003 551.99 334.323 554.42C330.913 559.35 326.733 562.58 324.463 567.51C322.183 572.44 323.513 573.01 319.533 576.43C315.553 579.84 321.243 581.17 313.843 580.41C306.443 579.65 302.653 577.56 300.943 572.25C299.803 568.71 299.513 562.74 299.443 559.14L324.633 537.05C325.063 539.06 326.203 541.87 329.203 543.7H329.193Z" fill="#838685"></path><path d="M49.394 768.01C48.254 803.67 44.4642 880.69 44.8442 895.11C45.0442 902.85 46.5642 918.78 49.0942 932.23C42.6142 931.09 34.614 929.79 33.084 930.01C30.424 930.39 21.3242 933.05 21.3242 933.05C21.3242 933.05 25.8744 901.56 27.7744 867.04C29.6744 832.52 37.6341 762.33 43.7041 736.53C45.1041 730.57 46.244 723.71 47.164 716.67C48.744 731.87 50.004 748.84 49.394 768.02V768.01Z" fill="#F0F0F0"></path><path d="M400.624 471.451L362.824 498.351V501.351L405.824 473.851L469.824 431.021V425.851L462.824 430.351L400.624 471.451Z" fill="#4B494B"></path><path d="M300.863 547.43L294.023 553.38C294.233 546.92 294.503 539.57 294.773 534.88C295.193 527.48 293.733 492.55 292.253 469.85L407.553 376.48L420.983 383.31C417.573 386.2 414.953 394.7 414.953 394.7L429.673 402.57L439.423 407.79C439.423 407.79 439.673 406.49 440.953 403.85C441.633 402.45 442.593 400.67 443.983 398.49C444.563 397.58 445.263 396.77 446.043 396.05L464.283 405.32L463.093 406.35L407.833 454.42L375.343 482.68C374.713 482.3 374.123 481.96 373.603 481.68C372.533 481.1 370.963 480.8 369.173 480.65C364.783 480.3 359.083 480.99 356.243 481.39C352.263 481.96 352.543 487.08 352.543 487.08C352.543 487.08 345.713 485.66 340.023 487.65C334.333 489.64 337.173 499.32 337.173 499.32C337.173 499.32 332.053 497.9 329.493 501.88C326.933 505.86 330.633 512.98 330.633 512.98C330.633 512.98 325.513 512.7 322.953 513.55C320.393 514.4 319.543 522.66 320.393 524.08C320.653 524.51 321.113 525.63 321.633 526.98C321.853 527.56 322.083 528.18 322.313 528.8L316.013 534.28L300.873 547.45L300.863 547.43Z" fill="white"></path><rect x="-2.49328" y="0.00428402" width="74.3611" height="208.294" transform="matrix(-0.83205 -0.5547 -0.830139 0.557556 465.26 424.382)" fill="white" stroke="#BFBFBF" stroke-width="3"></rect><g clip-path="url(#clip1_93_2684)"><path d="M401.5 425.103C400.971 424.75 400.759 424.201 400.89 423.524C401.021 422.847 401.49 422.073 402.237 421.3C402.985 420.526 403.977 419.789 405.089 419.181C406.201 418.572 407.382 418.12 408.483 417.881C409.585 417.642 410.557 417.627 411.276 417.839C411.996 418.05 412.431 418.478 412.527 419.068C412.622 419.658 412.374 420.385 411.813 421.155C411.252 421.925 410.404 422.705 409.375 423.395C407.996 424.322 406.392 425.022 404.915 425.342C403.438 425.662 402.21 425.576 401.5 425.103Z" fill="#37565D"></path><path d="M417.352 426.394L426.017 420.574C426.477 420.266 426.823 419.907 426.981 419.577C427.139 419.247 427.095 418.974 426.858 418.816L422.398 415.843C422.161 415.685 421.752 415.656 421.26 415.763C420.767 415.87 420.233 416.103 419.773 416.412C419.313 416.721 418.967 417.079 418.809 417.409C418.651 417.739 418.695 418.013 418.932 418.17L422.5 420.549L415.568 425.205C415.108 425.514 414.762 425.872 414.604 426.202C414.446 426.532 414.491 426.806 414.727 426.963C414.964 427.121 415.373 427.15 415.865 427.043C416.358 426.936 416.892 426.703 417.352 426.394Z" fill="#003D4C"></path><path d="M392.198 442.095L387.738 439.121C387.501 438.964 387.457 438.69 387.615 438.36C387.772 438.03 388.119 437.672 388.579 437.363C389.038 437.054 389.573 436.821 390.065 436.714C390.558 436.607 390.967 436.636 391.204 436.794L394.772 439.172L401.704 434.516C402.163 434.208 402.698 433.974 403.19 433.868C403.683 433.761 404.092 433.789 404.329 433.947C404.565 434.105 404.61 434.379 404.452 434.709C404.294 435.038 403.947 435.397 403.488 435.706L394.823 441.525C394.363 441.834 393.828 442.068 393.336 442.174C392.844 442.281 392.434 442.252 392.198 442.095Z" fill="#003D4C"></path><path d="M388.273 423.243C388.51 423.401 388.554 423.675 388.396 424.005C388.238 424.334 387.892 424.693 387.432 425.002L380.5 429.658L384.068 432.036C384.305 432.194 384.349 432.468 384.191 432.798C384.034 433.127 383.687 433.486 383.227 433.795C382.767 434.104 382.233 434.337 381.74 434.444C381.248 434.55 380.839 434.522 380.602 434.364L376.142 431.391C375.906 431.233 375.861 430.959 376.019 430.629C376.177 430.3 376.523 429.941 376.983 429.632L385.648 423.812C386.108 423.504 386.642 423.27 387.135 423.164C387.627 423.057 388.036 423.085 388.273 423.243Z" fill="#003D4C"></path><path d="M410.802 408.112L415.262 411.085C415.499 411.243 415.543 411.517 415.385 411.847C415.228 412.176 414.881 412.535 414.421 412.844C413.962 413.153 413.427 413.386 412.935 413.493C412.442 413.599 412.033 413.571 411.796 413.413L408.228 411.034L401.296 415.69C400.837 415.999 400.302 416.232 399.81 416.339C399.317 416.446 398.908 416.417 398.671 416.259C398.435 416.102 398.391 415.828 398.548 415.498C398.706 415.168 399.053 414.81 399.512 414.501L408.177 408.681C408.637 408.372 409.172 408.139 409.664 408.032C410.156 407.926 410.566 407.954 410.802 408.112Z" fill="#003D4C"></path><path d="M398.926 428.026C399.872 428.657 400.05 429.752 399.419 431.071C398.788 432.391 397.401 433.826 395.562 435.06L386.642 429.114C388.481 427.879 390.62 426.945 392.589 426.518C394.558 426.091 396.196 426.206 397.142 426.837L398.926 428.026Z" fill="#37565D"></path></g><rect width="3.615" height="106.634" rx="1.8075" transform="matrix(-0.83205 -0.5547 -0.830139 0.557556 390.926 464.867)" fill="#FF6D33"></rect><rect width="3.615" height="106.634" rx="1.8075" transform="matrix(-0.83205 -0.5547 -0.830139 0.557556 377.691 456.044)" fill="#63B4EE"></rect><rect width="3.615" height="106.634" rx="1.8075" transform="matrix(-0.83205 -0.5547 -0.830139 0.557556 364.457 447.221)" fill="#E0337E"></rect><rect width="3.615" height="106.634" rx="1.8075" transform="matrix(-0.83205 -0.5547 -0.830139 0.557556 351.223 438.398)" fill="#EFDC2E"></rect><path d="M43.3228 681.13C41.5028 658.91 45.9726 619.19 51.3726 608.35C57.1426 618.93 62.233 627.81 64.563 631.05C71.393 640.53 99.8428 686.82 99.8428 686.82C99.8428 686.82 103.273 685.15 108.303 682.65L96.4326 735.38L80.8726 916.63C76.4726 930.54 69.9126 944.78 65.6826 953.38C62.8826 954.67 60.0627 955.37 57.7427 954.67C54.8427 953.8 52.3428 947.02 50.3228 938.16C50.1428 937.36 49.9627 936.54 49.7827 935.7C49.5427 934.57 49.3128 933.41 49.0928 932.23C46.5628 918.77 45.0428 902.84 44.8428 895.11C44.4628 880.69 48.2526 803.68 49.3926 768.01C50.0026 748.83 48.7526 731.86 47.1626 716.66C45.8026 703.59 44.2028 691.83 43.3228 681.13Z" fill="#D1D2D2"></path><path d="M106.303 228.14L89.9429 248.14C84.8429 247.5 79.9729 247.87 76.7129 249.01C70.8929 251.05 52.3929 263.55 42.0029 272.87C42.9329 271.12 43.8928 269.54 44.8428 268.36C49.3928 262.67 61.5329 252.05 69.5029 245.6C77.4729 239.15 91.5026 227.39 95.6826 222.84C96.3326 222.13 96.8229 221.44 97.2129 220.77C100.183 224.14 106.303 228.15 106.303 228.15V228.14Z" fill="#F0F0F0"></path><path d="M109.713 478.16C110.093 472.47 114.644 458.43 116.544 452.74C118.444 447.05 130.583 418.59 140.443 385.59C150.303 352.58 153.723 312.37 148.033 299.09C145.163 292.4 137.013 283.89 128.643 275.97C120.403 268.16 111.963 260.93 108.193 256.6C106.623 254.8 104.683 253.31 102.533 252.1C98.7333 249.96 94.2532 248.69 89.9332 248.15L106.294 228.15C106.294 228.15 109.433 226.46 115.363 226.69C119.953 226.87 126.213 228.19 133.983 232.32C151.813 241.8 199.624 288.47 205.314 297.58C207.874 301.67 214.413 310.75 221.393 321.32C229.943 334.28 239.153 349.48 242.493 360.55C243.843 365.03 244.093 373.34 243.663 383.54C242.173 419.17 232.433 477.97 232.433 477.97C232.433 477.97 226.563 497.38 217.333 522.1C211.563 532.48 204.163 544.28 196.973 555.28L194.073 554.98L123.733 547.67C118.963 531.89 110.403 507.55 109.323 503.96C108.183 500.17 100.213 499.79 100.593 492.58C100.973 485.37 109.323 483.85 109.703 478.16H109.713Z" fill="#F0F0F0"></path><path d="M99.5142 923.08C104.044 902.34 120.334 828.35 124.894 814.67C129.024 802.28 139.354 741.93 143.734 715.71H143.984C144.154 721.89 145.414 729.01 149.934 731.96C150.184 732.12 150.424 732.28 150.674 732.43C151.674 733.05 152.704 733.65 153.754 734.23C153.784 739.94 153.624 746.03 152.964 749.79C151.444 758.52 150.684 781.66 146.894 794.94C143.104 808.22 124.894 859.06 123.374 873.09C121.854 887.13 114.264 923.55 114.264 923.55C114.264 923.55 110.474 930.38 106.294 930.38C102.114 930.38 98.3242 928.48 98.3242 928.48C98.3242 928.48 98.7544 926.5 99.5044 923.07L99.5142 923.08Z" fill="#F0F0F0"></path><path d="M111.614 686.82C114.274 689.86 119.204 692.13 119.204 692.13C119.204 692.13 120.384 692.79 122.234 693.87C120.214 703.97 117.544 717.7 117.304 720.97C116.924 726.28 86.9541 870.07 85.4341 895.11C85.0441 901.54 83.284 909.03 80.874 916.63L96.4341 735.38L108.304 682.65C108.424 682.59 108.544 682.53 108.664 682.47C109.724 684.25 110.774 685.87 111.604 686.82H111.614Z" fill="#F0F0F0"></path><path d="M65.6836 953.39C69.9136 944.79 76.4735 930.55 80.8735 916.64C83.2835 909.04 85.0436 901.54 85.4336 895.12C86.9536 870.08 116.924 726.29 117.304 720.98C117.534 717.71 120.204 703.98 122.234 693.88C124.864 695.42 128.854 697.82 132.864 700.49C139.694 705.04 141.594 709.6 141.594 709.6C141.594 709.6 142.314 709.93 144.104 710.2C144.024 711.45 143.974 712.87 143.974 714.37C143.904 714.82 143.824 715.27 143.744 715.74C139.354 741.96 129.034 802.31 124.904 814.7C120.344 828.37 104.064 902.36 99.5239 923.11C97.6439 923.04 95.7138 923.32 94.1738 924.35C89.6238 927.39 87.7235 930.8 86.5835 938.01C85.7035 943.61 81.6236 949.65 78.9536 953.32C78.1836 954.38 77.5235 955.25 77.1035 955.84C75.2035 958.5 61.5439 961.53 61.5439 961.53C61.5439 961.53 63.2238 958.43 65.6938 953.41L65.6836 953.39Z" fill="white"></path><path d="M194.084 554.98L196.984 555.28C195.824 557.05 194.674 558.81 193.534 560.53C184.464 574.22 176.234 586 172.694 591.22C171.874 592.42 170.924 593.84 169.874 595.4C167.164 599.43 163.794 604.47 160.394 609.59C156.164 603.27 151.864 596.8 149.334 592.92C148.344 591.4 147.614 590.26 147.284 589.71C145.004 585.92 139.694 587.05 137.804 585.16C135.904 583.26 129.074 565.81 124.524 550.26C124.284 549.43 124.024 548.57 123.754 547.68L194.094 554.99L194.084 554.98Z" fill="#F0F0F0"></path><path d="M169.874 595.4C170.924 593.84 171.874 592.42 172.694 591.22C176.224 586 184.464 574.22 193.534 560.53C194.674 558.81 195.824 557.06 196.984 555.28C204.174 544.28 211.574 532.48 217.344 522.1C212.254 535.74 206.134 551.01 199.414 565.52C197.404 569.86 195.344 574.13 193.244 578.28L191.474 581.1L191.394 581.86C188.594 587.2 185.724 592.29 182.824 596.97C179.244 602.73 175.604 607.89 171.944 612.17C170.014 614.43 168.084 616.44 166.154 618.17C164.384 615.54 162.404 612.58 160.394 609.58C163.804 604.47 167.164 599.43 169.874 595.39V595.4Z" fill="#D1D2D2"></path><path d="M279.303 775.98C282.283 767.05 283.854 744.12 283.294 726.78C283.734 723.65 283.933 720.92 283.853 718.69C283.093 698.2 274.743 672.4 272.473 665.2C271.693 662.73 269.613 659.58 267.223 656.52C269.873 656.61 276.174 656.77 278.544 656.48C281.584 656.1 282.713 653.44 283.473 648.13C284.233 642.82 283.473 630.3 283.473 630.3L275.433 626.71C278.793 626.99 281.593 627.07 283.093 626.51C285.393 625.65 287.483 623.69 289.183 619.31C290.193 635.76 292.883 678.96 294.103 693.28C295.623 711.11 288.033 763.47 288.413 780.54C288.793 797.61 289.553 833.28 289.933 875.77C290.183 903.45 289.783 923.87 289.473 934.76C284.873 934.56 278.433 934.67 272.093 936.1C265.373 937.62 256.684 939.13 250.464 940.15C257.494 902.57 263.893 865.93 265.263 839.73C267.163 803.69 275.503 787.37 279.303 775.99V775.98Z" fill="#D1D2D2"></path><path d="M252.093 625.51C257.383 625.55 261.843 625.62 264.123 625.74C267.963 625.93 271.993 626.41 275.433 626.7L283.473 630.29C283.473 630.29 275.503 632.57 272.473 632.95C271.523 633.07 270.163 633.08 268.743 633.03C268.173 632.5 266.843 631.31 264.883 629.92C264.043 629.32 258.783 628.02 252.013 626.54C250.853 626.29 249.643 626.03 248.403 625.76L248.283 625.5C249.583 625.5 250.863 625.5 252.093 625.52V625.51Z" fill="#1D1D1B"></path><path d="M195.904 625.32C203.774 625.91 214.654 626.58 218.604 626.12C222.094 625.71 232.924 625.52 243.324 625.49C244.614 625.49 245.904 625.49 247.174 625.49C247.594 625.58 248.004 625.67 248.414 625.75C249.654 626.01 250.854 626.27 252.024 626.53C258.794 628.01 264.054 629.31 264.894 629.91C266.854 631.31 268.184 632.49 268.754 633.02C265.644 632.92 262.244 632.56 262.244 632.56L262.924 636.86L265.754 654.66L266.044 656.46C266.044 656.46 259.124 653.8 250.004 650.76C243.734 648.67 236.424 646.4 229.624 644.7C216.034 641.3 195.674 638.66 188.554 637.8C190.874 634.2 193.354 629.97 195.924 625.32H195.904Z" fill="#575756"></path><path d="M268.743 633.03C270.163 633.08 271.523 633.07 272.473 632.95C275.513 632.57 283.473 630.29 283.473 630.29C283.473 630.29 284.233 642.81 283.473 648.12C282.713 653.43 281.573 656.09 278.543 656.47C276.173 656.77 269.873 656.6 267.223 656.51C266.483 656.49 266.023 656.47 266.023 656.47L265.733 654.67L262.903 636.87L262.223 632.57C262.223 632.57 265.623 632.93 268.733 633.03H268.743Z" fill="#717070"></path><path d="M283.524 558.03C284.204 558.63 284.884 559.23 285.554 559.81C287.214 561.26 288.793 562.62 290.103 563.74C289.783 566.8 289.664 570.7 290.014 575.5C290.154 577.43 290.373 579.49 290.683 581.72C293.343 600.69 294.473 634.84 297.893 650.01C301.303 665.19 312.694 754.34 312.314 797.59C311.934 840.84 323.314 935.31 323.314 935.31C323.314 935.31 324.834 938.35 316.864 940.62C308.894 942.9 289.163 943.66 289.163 943.66C289.163 943.66 289.304 940.56 289.464 934.74C289.774 923.86 290.164 903.43 289.924 875.75C289.544 833.26 288.784 797.6 288.404 780.52C288.024 763.45 295.614 711.09 294.094 693.26C292.874 678.94 290.184 635.74 289.174 619.29C289.394 618.73 289.604 618.13 289.804 617.49C290.104 616.54 290.404 615.5 290.674 614.35C292.574 606.38 291.054 602.97 288.014 597.28C284.974 591.59 283.843 584.76 283.083 568.83C282.873 564.5 283.084 560.94 283.514 558.03H283.524Z" fill="white"></path><path d="M201.142 615.49C203.692 610.56 206.272 605.37 208.802 600.12C221.232 574.37 232.562 547.19 234.152 541.52C236.472 533.25 257.552 466.35 261.892 427C263.672 449.93 266.762 485.54 268.012 496.18C269.722 510.69 272.282 536.02 272.282 536.02C272.282 536.02 273.512 543.52 276.522 549.65C277.612 551.88 278.942 553.93 280.532 555.37C281.512 556.26 282.522 557.15 283.522 558.04C283.102 560.95 282.882 564.51 283.092 568.84C283.852 584.77 284.992 591.6 288.022 597.29C291.062 602.98 292.572 606.4 290.682 614.36C290.412 615.51 290.112 616.55 289.812 617.5C289.612 618.14 289.402 618.74 289.182 619.3C287.482 623.67 285.402 625.63 283.092 626.5C281.592 627.06 278.792 626.98 275.432 626.7C271.992 626.42 267.962 625.93 264.122 625.74C261.832 625.63 257.372 625.55 252.092 625.51C250.862 625.51 249.592 625.5 248.282 625.49C247.912 625.49 247.532 625.49 247.152 625.49C245.882 625.49 244.602 625.49 243.302 625.49C232.902 625.52 222.072 625.7 218.582 626.12C214.642 626.58 203.752 625.91 195.882 625.32C197.602 622.21 199.352 618.91 201.132 615.48L201.142 615.49Z" fill="#C5E4F6"></path><path d="M255.933 329.75C260.663 336.23 265.054 341.16 267.924 341.96C277.404 344.62 283.854 343.48 281.964 361.31C280.824 372.05 280.503 394.06 280.433 409.88C272.773 381.43 262.914 347.51 258.064 335.14C257.414 333.48 256.704 331.67 255.944 329.76L255.933 329.75Z" fill="white"></path><path d="M95.2936 210.68C95.2936 210.68 107.434 212.58 116.544 215.23C125.654 217.89 143.863 234.96 143.863 234.96C143.863 234.96 150.963 236.38 157.303 237.44C159.633 237.83 161.853 238.17 163.593 238.37C170.043 239.13 183.323 251.65 183.323 251.65L182.473 255.54L181.423 260.38C181.423 260.38 188.634 263.04 204.564 279.73C210.954 286.42 215.634 292.51 219.734 298.57C225.854 307.62 230.683 316.63 237.953 327.53C250.093 345.74 251.614 354.09 255.024 374.2C255.554 377.32 255.443 382.13 254.833 388.11C254.623 390.17 254.353 392.37 254.033 394.68C249.283 429 232.913 489.45 223.903 509.27C222.143 513.13 219.903 517.47 217.333 522.1C226.563 497.38 232.433 477.97 232.433 477.97C232.433 477.97 242.173 419.17 243.663 383.54C244.093 373.33 243.843 365.02 242.493 360.55C239.153 349.48 229.943 334.27 221.393 321.32C214.413 310.74 207.874 301.67 205.314 297.58C199.624 288.47 151.824 241.81 133.984 232.32C126.204 228.18 119.953 226.86 115.363 226.69C109.433 226.46 106.294 228.15 106.294 228.15C106.294 228.15 100.163 224.14 97.2033 220.77C96.4033 219.86 95.8335 219.01 95.6735 218.28C94.9135 214.87 95.2936 210.69 95.2936 210.69V210.68Z" fill="#D1D2D2"></path><path d="M95.7734 210.66C97.4334 210.55 103.053 209.83 104.023 204.99C105.163 199.3 103.263 193.61 107.433 192.47C108.213 192.26 109.823 192.32 112.053 192.69C121.743 194.27 143.083 201.49 157.893 216C176.103 233.83 179.893 245.97 185.973 250.52C188.493 252.41 195.153 260.4 202.503 269.77C208.113 276.93 214.133 284.89 219.023 291.55C219.163 293.07 219.323 294.62 219.463 295.99L228.843 308.93L244.023 333.59L253.503 354.46L256.913 373.81L257.293 394.22C258.723 398.04 259.823 401.59 259.943 403.78C259.963 404.19 260.053 404.78 260.183 405.53C260.223 405.77 260.273 406.02 260.323 406.29C260.463 407.1 260.563 407.93 260.603 408.81C260.753 411.99 261.233 418.65 261.873 426.98C257.543 466.33 236.453 533.23 234.133 541.5C232.543 547.17 221.213 574.35 208.783 600.1C206.253 605.35 203.673 610.54 201.123 615.47C199.353 618.89 197.593 622.19 195.873 625.31C193.303 629.96 190.823 634.19 188.503 637.79C187.233 639.77 186.013 641.55 184.853 643.11C183.043 641.59 181.393 640.27 180.253 639.38C179.613 638.88 178.843 638.39 178.033 637.93C179.203 636.93 179.873 636.34 179.873 636.34C179.873 636.34 174.943 631.03 172.283 627.23C171.633 626.29 169.913 623.76 167.663 620.43C167.503 620.19 167.333 619.94 167.163 619.69C166.823 619.19 166.473 618.67 166.123 618.14C168.053 616.41 169.983 614.4 171.913 612.14C175.573 607.86 179.213 602.7 182.793 596.94C185.703 592.26 188.563 587.17 191.363 581.83C191.983 580.65 192.603 579.45 193.213 578.25C195.313 574.11 197.383 569.83 199.383 565.49C206.103 550.97 212.213 535.71 217.313 522.07C219.883 517.45 222.123 513.1 223.883 509.24C232.893 489.42 249.263 428.98 254.013 394.65C254.333 392.34 254.603 390.13 254.813 388.08C255.423 382.1 255.533 377.3 255.003 374.17C251.593 354.06 250.073 345.72 237.933 327.5C230.663 316.59 225.833 307.59 219.713 298.54C215.613 292.48 210.933 286.39 204.543 279.7C188.613 263.01 181.403 260.35 181.403 260.35L182.453 255.51L183.303 251.62C183.303 251.62 170.023 239.1 163.573 238.34C161.843 238.14 159.613 237.8 157.283 237.41C150.943 236.35 143.843 234.93 143.843 234.93C143.843 234.93 125.633 217.86 116.523 215.2C107.413 212.54 95.2734 210.65 95.2734 210.65C95.2734 210.65 95.4532 210.65 95.7432 210.63L95.7734 210.66Z" fill="white"></path><path d="M206.673 228.3L209.873 236.48L209.423 243.75C207.783 242.59 206.063 241.32 204.453 240.05C204.953 235.9 205.663 231.54 206.673 228.3Z" fill="#C5E4F6"></path><path d="M114.263 187.54C115.023 184.13 112.743 182.23 115.783 181.09C116.293 180.9 117.833 181.15 120.073 181.73C131.213 184.62 159.863 195.77 167.763 202.72C177.243 211.07 195.463 229.28 198.493 234.21C199.183 235.34 200.523 236.7 202.153 238.14C202.873 238.77 203.643 239.41 204.453 240.05C206.053 241.32 207.783 242.59 209.423 243.75C213.313 246.5 216.703 248.62 216.703 248.62L216.473 251.2L214.313 274.97L214.053 277.83L202.503 269.77C195.153 260.4 188.503 252.41 185.973 250.52C179.903 245.97 176.113 233.83 157.893 216C143.083 201.5 121.743 194.27 112.053 192.69C113.003 191 113.913 189.11 114.263 187.54Z" fill="#C5E4F6"></path><path d="M32.6929 443.25C34.4029 427.32 60.5826 353.9 71.3926 318.05C79.7826 290.24 85.083 260.04 87.043 247.88C87.993 247.93 88.9526 248 89.9326 248.13C94.2526 248.67 98.7327 249.94 102.533 252.08C104.693 253.29 106.633 254.78 108.193 256.58C111.963 260.91 120.403 268.14 128.643 275.95C137.003 283.87 145.163 292.39 148.033 299.07C153.723 312.35 150.313 352.56 140.443 385.57C130.583 418.58 118.443 447.03 116.543 452.72C114.643 458.41 110.093 472.45 109.713 478.14C109.333 483.83 100.983 485.35 100.603 492.56C100.223 499.77 108.193 500.15 109.333 503.94C110.413 507.53 118.973 531.87 123.743 547.65C124.013 548.54 124.273 549.4 124.513 550.23C129.063 565.79 135.893 583.24 137.793 585.13C139.693 587.03 145.003 585.89 147.273 589.68C147.603 590.24 148.333 591.37 149.323 592.89C151.853 596.77 156.153 603.24 160.383 609.56C162.393 612.56 164.373 615.51 166.143 618.15C166.503 618.68 166.853 619.2 167.183 619.7C167.353 619.95 167.513 620.2 167.683 620.44C169.933 623.77 171.653 626.31 172.303 627.24C174.963 631.03 179.893 636.35 179.893 636.35C179.893 636.35 179.213 636.94 178.053 637.94C177.293 638.59 176.333 639.41 175.193 640.38C173.673 641.67 171.853 643.19 169.843 644.85C167.903 646.45 165.793 648.18 163.593 649.93C156.683 655.45 148.983 661.26 143.473 664.43C141.923 665.32 140.083 666.34 138.053 667.43C119.513 643.59 49.1227 552.07 41.2227 526.9C32.1127 497.88 30.9826 459.18 32.6826 443.24L32.6929 443.25Z" fill="white"></path><path d="M108.672 682.48C108.552 682.54 108.432 682.6 108.312 682.66C103.282 685.15 99.8521 686.83 99.8521 686.83C99.8521 686.83 71.4023 640.54 64.5723 631.06C62.2323 627.82 57.1523 618.94 51.3823 608.36C40.2723 587.99 26.6121 561.32 25.1221 556.32C22.8421 548.73 16.3922 541.14 13.7422 537.35C11.0822 533.56 -3.32773 512.69 -0.677734 480.44C1.98227 448.19 7.67248 429.6 7.29248 423.15C6.91248 416.7 20.1921 348.41 19.4321 333.23C18.6721 318.05 30.8123 288.08 35.3623 280.11C36.4223 278.25 38.8422 275.7 42.0122 272.86C52.3922 263.54 70.9022 251.04 76.7222 249C79.3622 248.08 83.0525 247.67 87.0625 247.88C85.1025 260.03 79.8021 290.23 71.4121 318.05C60.6021 353.9 34.4224 427.32 32.7124 443.25C31.0024 459.18 32.1424 497.88 41.2524 526.91C49.1524 552.08 119.542 643.6 138.082 667.44C137.652 667.67 137.232 667.9 136.792 668.14C128.122 672.78 116.552 678.58 108.692 682.48H108.672Z" fill="#F0F0F0"></path><path d="M157.004 667.61C154.664 665.56 152.034 663.19 149.324 660.69C153.824 657.59 158.894 653.7 163.594 649.94C165.794 648.18 167.904 646.46 169.844 644.86C169.014 646.55 167.974 648.62 166.794 650.88C163.954 656.33 160.344 662.85 156.994 667.61H157.004Z" fill="#8A9FAB"></path><path d="M186.493 695.07C195.453 684.91 201.293 672.73 201.523 672.03C201.523 672.03 209.493 687.21 196.213 711.11C192.593 717.63 189.733 722.28 187.423 725.68C188.093 719.13 188.622 713.06 188.622 710.16C188.622 706.35 187.583 700.32 186.493 695.07Z" fill="#F4B59C"></path><path d="M184.074 684.55C184.074 684.55 171.554 677.72 164.724 673.74C163.184 672.84 160.395 670.58 157.005 667.61C160.355 662.85 163.974 656.33 166.804 650.88C167.974 648.62 169.014 646.55 169.854 644.86C171.864 643.2 173.684 641.68 175.204 640.39C176.344 639.43 177.305 638.6 178.065 637.95C178.885 638.41 179.644 638.9 180.284 639.4C181.424 640.29 183.084 641.6 184.884 643.13C188.474 646.16 192.684 650.03 194.704 653.06C197.744 657.61 201.914 670.89 201.534 672.03C201.304 672.73 195.465 684.91 186.505 695.07C185.325 689.35 184.084 684.55 184.084 684.55H184.074Z" fill="#C5E4F6"></path><path d="M152.204 673.16C150.654 674.38 148.254 675.95 145.434 677.66C142.724 679.31 139.624 681.09 136.524 682.82C131.404 685.68 126.304 688.4 122.974 690.15C120.664 691.37 119.194 692.12 119.194 692.12C119.194 692.12 114.264 689.84 111.604 686.81C110.774 685.86 109.714 684.24 108.664 682.46C116.524 678.56 128.094 672.75 136.764 668.12C139.304 666.76 141.604 665.5 143.474 664.42C145.234 663.41 147.214 662.13 149.324 660.67C152.034 663.17 154.654 665.54 157.004 667.59C155.284 670.03 153.644 672.01 152.204 673.15V673.16Z" fill="#8A9FAB"></path><path d="M176.863 737.28C173.823 740.69 170.793 741.45 170.793 741.45C170.793 741.45 161.813 738.64 153.743 734.24C152.693 733.67 151.663 733.07 150.663 732.44C150.413 732.28 150.163 732.13 149.923 731.97C145.403 729.02 144.143 721.9 143.973 715.72C143.963 715.26 143.953 714.8 143.953 714.35C144.203 712.85 144.433 711.48 144.633 710.25C145.733 710.38 147.163 710.48 148.993 710.48C152.803 710.48 158.323 710.03 166.083 708.54C166.263 708.51 166.433 708.47 166.613 708.44C168.393 708.09 170.133 707.5 171.833 706.73C177.253 704.27 182.223 699.89 186.483 695.05C187.573 700.3 188.613 706.33 188.613 710.14C188.613 713.04 188.083 719.11 187.413 725.66C181.273 734.7 179.063 734.79 176.853 737.27L176.863 737.28Z" fill="#E8937C"></path><path d="M136.534 682.83C139.634 681.1 142.724 679.32 145.444 677.67C148.264 675.96 150.664 674.39 152.214 673.17C153.654 672.04 155.294 670.05 157.014 667.61C160.404 670.57 163.194 672.84 164.734 673.74C171.564 677.72 184.083 684.55 184.083 684.55C184.083 684.55 185.324 689.35 186.504 695.07C182.234 699.91 177.264 704.29 171.854 706.75C170.154 707.52 168.414 708.11 166.634 708.46C166.454 708.5 166.284 708.53 166.104 708.56C158.344 710.05 152.814 710.5 149.014 710.5C147.194 710.5 145.754 710.4 144.654 710.27C144.464 710.25 144.274 710.22 144.104 710.2C142.314 709.94 141.594 709.6 141.594 709.6C141.594 709.6 139.694 705.05 132.864 700.49C128.854 697.82 124.864 695.42 122.234 693.88C120.384 692.8 119.204 692.14 119.204 692.14C119.204 692.14 120.664 691.39 122.984 690.17C126.314 688.42 131.414 685.7 136.534 682.84V682.83Z" fill="#8A9FAB"></path><path d="M45.5928 1238.46C49.7628 1191.79 49.0028 1183.45 48.6328 1169.03C48.2528 1154.61 46.3529 1123.88 52.4229 1097.7C58.4929 1071.52 66.0827 1054.07 67.2227 1048.38C68.3627 1042.69 74.4328 1003.23 77.8428 988.44C81.2528 973.64 81.2529 967.95 80.5029 964.16C80.0829 962.07 79.4429 957.23 78.9429 953.29C81.6129 949.62 85.6928 943.58 86.5728 937.98C87.7128 930.77 89.6126 927.36 94.1626 924.32C95.7026 923.29 97.6327 923.01 99.5127 923.08C98.7627 926.51 98.3325 928.49 98.3325 928.49C98.3325 928.49 102.123 930.39 106.303 930.39C110.483 930.39 114.273 923.56 114.273 923.56C114.273 923.56 121.863 887.14 123.383 873.1C124.903 859.06 143.113 808.22 146.903 794.95C150.693 781.67 151.453 758.53 152.973 749.8C153.623 746.04 153.783 739.95 153.763 734.24C161.833 738.65 170.813 741.45 170.813 741.45C170.813 741.45 173.853 740.69 176.883 737.28C179.923 733.87 182.953 735 196.233 711.1C201.423 701.75 203.363 693.75 203.803 687.46C212.453 699.72 222.463 715.2 229.973 730.58L214.443 786.98L170.813 1019.55L125.663 1359.11L150.293 1381.43L148.863 1399.09L128.313 1397.05L55.8525 1413.36L55.043 1424.2C51.793 1424.07 49.7827 1423.98 49.7827 1423.98C49.7827 1423.98 41.4328 1285.12 45.6128 1238.46H45.5928Z" fill="#B8A290"></path><path d="M170.793 1019.55L214.423 786.98L229.953 730.58C234.863 740.62 238.703 750.62 240.413 759.66C246.003 789.32 246.073 843.31 245.773 867.97C242.003 887.06 237.603 910.44 233.473 932.8C225.763 974.54 218.983 1012.72 218.983 1012.72C218.983 1012.72 194.703 1099.98 189.393 1137.16C184.083 1174.34 165.873 1284.36 165.113 1304.09C164.353 1323.82 169.283 1323.06 164.353 1331.41C159.423 1339.76 153.733 1338.62 152.213 1343.17C150.763 1347.53 159.403 1356.07 167.133 1367.79L151.073 1371.62L150.283 1381.42L125.653 1359.1L170.803 1019.54L170.793 1019.55Z" fill="#B8A290"></path><path d="M201.523 672.03C201.903 670.89 197.733 657.61 194.693 653.06C192.673 650.03 188.473 646.16 184.873 643.13C186.033 641.57 187.253 639.78 188.523 637.81C195.633 638.68 216.003 641.32 229.593 644.71C236.393 646.41 243.703 648.68 249.973 650.77L246.323 694.44L239.073 697.44L229.943 730.58C222.423 715.2 212.423 699.72 203.773 687.46C204.463 677.66 201.513 672.02 201.513 672.02L201.523 672.03Z" fill="#B8A290"></path><path d="M245.775 867.97C248.995 851.65 251.765 838.46 253.505 831.75C260.265 805.71 279.695 752.53 283.295 726.78C283.855 744.13 282.274 767.06 279.304 775.98C275.514 787.36 267.164 803.68 265.264 839.72C265.174 841.34 265.074 842.99 264.954 844.69L245.534 880.88C245.534 880.88 245.674 875.96 245.764 867.97H245.775Z" fill="#E9DFCF"></path><path d="M246.344 694.44L249.993 650.77C259.103 653.81 266.034 656.47 266.034 656.47C266.034 656.47 266.494 656.49 267.234 656.51C269.624 659.57 271.704 662.72 272.484 665.19C274.764 672.4 283.104 698.2 283.864 718.68C283.944 720.9 283.744 723.63 283.304 726.77C279.704 752.52 260.274 805.7 253.514 831.74C251.774 838.45 249.004 851.64 245.784 867.96C246.084 843.3 246.014 789.31 240.424 759.65C238.724 750.61 234.874 740.61 229.964 730.57L239.094 697.43L246.344 694.43V694.44Z" fill="#E9DFCF"></path><path d="M290.103 563.75C292.203 565.55 293.623 566.74 293.623 566.74C293.623 566.74 293.653 565.77 293.693 564.15L299.423 559.13C299.493 562.73 299.793 568.7 300.923 572.24C302.633 577.55 306.423 579.64 313.823 580.4C321.223 581.16 315.533 579.83 319.513 576.42C323.493 573.01 322.173 572.44 324.443 567.5C326.723 562.57 330.893 559.34 334.303 554.41C335.983 551.98 339.333 549.23 342.283 547.06C342.363 547.05 342.443 547.03 342.513 547.02C342.893 546.96 343.283 546.9 343.693 546.82C343.783 546.8 343.873 546.78 343.963 546.76C342.353 548.03 340.863 549.38 339.993 550.62C337.333 554.41 328.233 564.66 326.903 568.83C325.573 573 321.783 578.5 321.213 580.02C320.643 581.54 319.693 584.19 317.993 584.38C316.283 584.57 309.833 584.19 304.903 581.91C299.973 579.63 299.783 578.5 296.933 576.98C295.393 576.16 292.423 575.73 290.003 575.5C289.653 570.7 289.773 566.8 290.093 563.74L290.103 563.75Z" fill="#F0F0F0"></path><path d="M165.293 109.77C165.293 109.77 163.583 112.43 163.773 114.89C163.963 117.35 164.913 121.15 165.103 123.05C165.293 124.95 161.883 124.95 160.933 122.67C159.983 120.39 158.083 119.45 156.763 118.12C155.433 116.79 154.673 113.57 155.623 110.72C156.573 107.87 157.903 107.87 159.223 105.79C160.553 103.7 162.073 102.94 162.073 102.94L165.293 109.77Z" fill="#E8937C"></path><path d="M231.123 156.62C231.123 156.62 244.023 157.57 246.683 157.76C248.403 157.88 252.653 158.4 255.443 158.75C254.473 160.93 253.513 164.02 253.513 164.02C253.513 164.02 243.273 160.8 240.423 160.23C237.573 159.66 231.123 156.63 231.123 156.63V156.62Z" fill="white"></path><path d="M231.122 156.62V153.961C231.122 153.961 245.162 152.82 248.382 153.01C250.342 153.13 254.272 153.451 257.042 153.691C257.182 155.081 257.072 156.27 256.532 156.81C256.202 157.14 255.812 157.87 255.432 158.75C252.642 158.4 248.392 157.88 246.672 157.76C244.012 157.57 231.112 156.62 231.112 156.62H231.122Z" fill="#E8937C"></path><path d="M240.413 160.23C243.263 160.8 253.503 164.02 253.503 164.02C253.503 164.02 255.023 165.11 255.603 166.8C255.783 167.34 255.873 167.93 255.783 168.58C255.403 171.24 251.233 174.27 251.233 174.27C251.233 174.27 251.993 170.86 250.663 169.15C249.333 167.44 240.803 164.98 237.193 163.65C233.593 162.32 231.123 156.63 231.123 156.63C231.123 156.63 237.573 159.67 240.423 160.23H240.413Z" fill="#E8937C"></path><path d="M227.702 98.3804C227.702 98.3804 236.812 95.3405 241.172 95.7205C245.532 96.1005 251.412 98.1903 252.362 98.7603C253.312 99.3303 256.342 101.8 256.342 101.8C256.342 101.8 258.433 97.0604 257.293 95.3504C256.153 93.6404 253.692 92.3104 252.552 92.1304C251.412 91.9404 244.772 91.1803 241.362 91.7503C237.952 92.3203 227.702 98.3904 227.702 98.3904V98.3804Z" fill="#2E140B"></path><path d="M256.543 140.69C253.82 140.69 251.613 140.18 251.613 139.55C251.613 138.921 253.82 138.41 256.543 138.41C259.266 138.41 261.473 138.921 261.473 139.55C261.473 140.18 259.266 140.69 256.543 140.69Z" fill="#E8937C"></path><path d="M234.722 101.42C237.382 100.66 240.412 99.7103 242.122 99.9003C243.832 100.09 248.572 102.37 248.572 102.37L252.742 105.59L251.412 107.68C251.412 107.68 248.002 104.83 246.292 104.64C244.582 104.45 243.442 103.12 238.322 103.31C233.202 103.5 226.562 105.97 226.562 105.97C226.562 105.97 232.062 102.18 234.722 101.42Z" fill="#343430"></path><path d="M242.213 112.04C241.009 112.04 240.033 110.173 240.033 107.87C240.033 105.567 241.009 103.7 242.213 103.7C243.417 103.7 244.393 105.567 244.393 107.87C244.393 110.173 243.417 112.04 242.213 112.04Z" fill="#343430"></path><path d="M218.734 209.2C215.064 213.41 210.424 219.89 207.594 225.86C207.264 226.56 206.954 227.39 206.664 228.3C205.654 231.54 204.944 235.9 204.444 240.05C203.634 239.41 202.864 238.77 202.144 238.14C200.504 236.7 199.174 235.34 198.484 234.21C197.024 231.84 192.054 226.4 186.234 220.46C191.654 216.94 200.124 212.09 207.594 210.69C210.944 210.06 214.844 209.58 218.734 209.21V209.2Z" fill="#F4B59C"></path><path d="M117.623 159.63C121.043 159.35 126.693 158.84 129.253 158.33C133.043 157.57 133.803 153.97 134.753 150.17C135.703 146.38 134.753 138.98 135.323 131.01C135.893 123.04 138.543 117.16 141.393 107.49C142.063 105.21 142.863 103.34 143.693 101.8C143.713 102.12 143.733 102.46 143.753 102.79C143.753 102.88 143.763 102.96 143.773 103.05C143.793 103.37 143.813 103.69 143.843 104.02C143.843 104.04 143.843 104.06 143.843 104.08C143.873 104.43 143.903 104.78 143.933 105.13C143.933 105.22 143.953 105.31 143.963 105.39C143.993 105.71 144.023 106.04 144.063 106.37C144.063 106.4 144.063 106.43 144.073 106.47C144.113 106.83 144.153 107.2 144.193 107.56C144.193 107.64 144.213 107.72 144.223 107.81C144.263 108.14 144.303 108.48 144.353 108.81C144.353 108.85 144.353 108.89 144.363 108.92C144.413 109.29 144.463 109.66 144.513 110.03C144.513 110.1 144.533 110.17 144.543 110.24C144.593 110.59 144.643 110.94 144.703 111.29C144.703 111.31 144.703 111.34 144.713 111.36C144.773 111.74 144.833 112.12 144.893 112.49C144.893 112.54 144.913 112.59 144.923 112.64C144.983 113 145.043 113.36 145.103 113.72C145.103 113.72 145.103 113.74 145.103 113.75C145.173 114.13 145.233 114.5 145.303 114.88C145.303 114.91 145.313 114.94 145.323 114.96C145.463 115.7 145.603 116.43 145.753 117.12V117.14C145.973 118.2 146.203 119.19 146.433 120.08C143.433 135.3 139.803 157.21 141.203 168.19C142.273 176.55 144.843 185 147.273 191.61C137.113 187.22 126.063 183.28 120.083 181.73C120.153 178.09 120.183 173.15 119.963 170.09C119.673 166.02 118.273 161.52 117.633 159.63H117.623Z" fill="#CE826F"></path><path d="M103.263 31.9902C119.573 11.5002 145.373 -2.9098 183.313 0.500201C221.253 3.9102 246.293 19.0904 251.223 25.1604C256.153 31.2304 265.643 44.5103 264.883 48.3003C264.123 52.0903 254.642 56.2702 254.642 56.2702C254.642 56.2702 241.743 52.8604 238.903 51.9104C236.053 50.9604 230.743 50.0102 224.673 51.5302C218.603 53.0502 208.933 55.1302 207.793 59.5002C206.653 63.8602 207.603 68.2304 209.503 69.9304C211.403 71.6404 213.863 75.0504 210.263 76.9504C206.663 78.8504 195.273 83.5902 193.193 90.9902C191.103 98.3902 190.153 100.85 190.153 103.51C190.153 106.17 190.913 116.41 190.913 116.41L181.053 113.94C181.053 113.94 182.953 109.96 179.153 102.18C178.913 101.69 178.703 101.22 178.513 100.77C178.513 100.76 178.513 100.75 178.503 100.74C178.323 100.31 178.153 99.8902 178.013 99.5002C178.003 99.4702 177.993 99.4504 177.983 99.4204C177.843 99.0504 177.723 98.7003 177.613 98.3603C177.593 98.3103 177.583 98.2604 177.563 98.2104C177.473 97.9204 177.383 97.6503 177.313 97.3903C176.913 96.0603 176.673 95.0503 176.273 94.3103C176.223 94.2203 176.172 94.1403 176.122 94.0603C176.072 93.9803 176.013 93.9103 175.963 93.8403C175.903 93.7703 175.843 93.7103 175.783 93.6403C175.783 93.6403 175.783 93.6403 175.773 93.6303C175.713 93.5703 175.643 93.5104 175.573 93.4604C175.573 93.4604 175.563 93.4604 175.553 93.4504C175.483 93.4004 175.412 93.3502 175.332 93.3002C175.332 93.3002 175.323 93.3002 175.313 93.2902C175.233 93.2402 175.153 93.2004 175.063 93.1604C175.063 93.1604 175.043 93.1603 175.043 93.1503C174.953 93.1103 174.863 93.0702 174.763 93.0402C174.753 93.0402 174.743 93.0402 174.733 93.0302C174.633 93.0002 174.533 92.9604 174.433 92.9404C174.423 92.9404 174.412 92.9404 174.392 92.9404C174.282 92.9104 174.173 92.8903 174.053 92.8603C174.033 92.8603 174.023 92.8603 174.003 92.8603C173.883 92.8403 173.763 92.8202 173.633 92.8002C173.613 92.8002 173.583 92.8002 173.563 92.8002C173.433 92.7802 173.303 92.7702 173.163 92.7602C173.133 92.7602 173.103 92.7602 173.073 92.7602C172.933 92.7502 172.793 92.7402 172.653 92.7302C172.613 92.7302 172.563 92.7302 172.523 92.7302C172.383 92.7302 172.243 92.7204 172.093 92.7204C172.033 92.7204 171.962 92.7204 171.892 92.7204C171.752 92.7204 171.623 92.7204 171.473 92.7204C171.373 92.7204 171.252 92.7204 171.142 92.7204C171.022 92.7204 170.913 92.7204 170.793 92.7204C170.553 92.7204 170.313 92.7402 170.053 92.7502C169.693 92.7702 169.323 92.7903 168.943 92.8103C168.923 92.7703 168.913 92.7502 168.913 92.7502C168.913 92.7502 168.912 92.7504 168.892 92.7204C168.882 92.7004 168.852 92.6803 168.832 92.6403C168.832 92.6403 168.833 92.6403 168.823 92.6303C168.393 92.1103 166.553 89.9804 164.093 88.1704C161.693 86.4004 158.702 84.9302 155.832 85.5402C149.572 86.8702 144.073 90.6603 143.693 98.0603C143.633 99.1703 143.653 100.46 143.713 101.85C142.883 103.39 142.083 105.26 141.413 107.54C138.563 117.21 135.913 123.1 135.343 131.06C134.773 139.03 135.723 146.43 134.773 150.22C133.823 154.01 133.063 157.62 129.273 158.38C126.713 158.89 121.063 159.4 117.643 159.68C117.443 159.1 117.323 158.76 117.323 158.76C117.323 158.76 105.943 131.06 102.523 122.72C99.1129 114.37 95.3127 89.3302 94.5527 84.7802C93.7927 80.2302 86.9626 52.5302 103.283 32.0402L103.263 31.9902Z" fill="#2E140B"></path><path d="M146.433 120.08C146.533 120.49 146.643 120.88 146.743 121.25C146.743 121.25 146.743 121.25 146.743 121.26C146.793 121.44 146.843 121.6 146.893 121.77C146.893 121.77 146.893 121.79 146.893 121.8C146.943 121.95 146.983 122.1 147.033 122.24C147.033 122.26 147.043 122.28 147.053 122.29C147.093 122.42 147.143 122.55 147.183 122.67C147.183 122.69 147.203 122.72 147.203 122.74C147.243 122.85 147.283 122.96 147.323 123.06C147.323 123.09 147.343 123.12 147.353 123.14C147.393 123.24 147.433 123.33 147.473 123.43C147.473 123.45 147.493 123.48 147.503 123.5C147.553 123.61 147.593 123.71 147.643 123.8C149.353 127.21 155.613 135.94 156.943 138.03C158.273 140.12 159.413 142.58 161.873 143.72C162.123 143.84 162.403 143.93 162.693 144.01C162.723 144.01 162.753 144.03 162.793 144.04C163.073 144.11 163.363 144.15 163.653 144.18C163.693 144.18 163.733 144.18 163.773 144.18C164.073 144.2 164.373 144.2 164.673 144.18C164.703 144.18 164.723 144.18 164.753 144.18C165.073 144.15 165.383 144.09 165.683 144.01C166.073 146.02 166.623 147.92 167.383 149.62C173.833 164.04 176.113 169.35 192.423 174.66C208.733 179.97 218.983 189.46 230.363 195.15C241.073 200.51 242.383 204.52 249.143 201.81C249.193 201.91 249.243 202.01 249.283 202.11C249.063 202.21 248.833 202.3 248.573 202.36C243.643 203.5 224.673 203.12 220.873 206.91C220.223 207.56 219.493 208.35 218.733 209.22C214.843 209.59 210.943 210.07 207.593 210.7C200.123 212.1 191.653 216.95 186.233 220.47C179.953 214.06 172.673 207.07 167.753 202.73C164.103 199.52 156.003 195.4 147.263 191.63C144.833 185.02 142.263 176.57 141.193 168.21C139.793 157.23 143.423 135.32 146.423 120.1L146.433 120.08Z" fill="#E8937C"></path><path d="M320.824 525.851L299.433 540.351L294.324 543.851C294.254 546.231 294.364 545.851 294.324 547.351L322.824 529.351L320.824 525.851Z" fill="#4B494B"></path><path d="M342.303 547.06C337.383 547.75 333.883 546.56 329.193 543.69C326.193 541.86 325.053 539.05 324.623 537.04C324.313 535.62 324.363 534.59 324.363 534.59C324.363 534.59 324.083 533.77 323.663 532.59L323.983 532.52C325.183 534.2 325.783 534.87 325.783 534.87C325.783 534.87 326.063 535.05 326.543 535.35C329.173 537.01 337.803 542.44 339.723 543.4C340.583 543.83 342.213 544.83 343.903 545.9C344.113 546.04 344.333 546.17 344.543 546.31C344.353 546.46 344.163 546.6 343.973 546.75C343.883 546.77 343.803 546.79 343.703 546.81C343.223 546.91 342.753 546.98 342.293 547.05L342.303 547.06Z" fill="#F4B59C"></path><path d="M373.014 489.4L370.844 486.56L369.784 485.18C369.784 485.18 369.024 487.08 363.904 491.25C361.584 493.14 359.334 493.24 357.574 492.78C354.994 489.95 352.514 487.08 352.514 487.08C352.514 487.08 352.234 481.96 356.214 481.39C359.044 480.99 364.743 480.3 369.143 480.65C370.933 480.79 372.504 481.1 373.574 481.68C374.094 481.96 374.684 482.3 375.314 482.68C376.264 483.26 377.304 483.95 378.384 484.74C379.404 485.49 380.443 486.32 381.453 487.23C383.213 488.81 384.854 490.59 386.034 492.51C386.374 493.07 386.693 493.63 386.953 494.2C389.513 499.89 390.933 507 390.083 510.13C389.973 510.52 389.813 510.84 389.603 511.11L375.404 492.53L373.014 489.41V489.4Z" fill="#F4B59C"></path><path d="M216.473 251.21C217.223 251.28 217.943 251.44 218.513 251.76C220.503 252.9 229.044 262 230.464 265.42C231.884 268.83 229.613 270.54 229.613 270.54L231.893 270.26C231.893 270.26 247.103 307.43 255.953 329.76C256.713 331.67 257.423 333.48 258.073 335.14C262.923 347.52 272.794 381.43 280.444 409.88C285.814 429.83 290.094 447.09 290.794 452.37C291.194 455.4 291.663 461.07 292.133 468.09C292.173 468.67 292.214 469.26 292.254 469.86C293.734 492.56 295.204 527.48 294.774 534.89C294.504 539.58 294.234 546.93 294.024 553.39C293.974 555.09 293.913 556.73 293.873 558.24C293.803 560.61 293.743 562.67 293.703 564.17C293.663 565.78 293.633 566.76 293.633 566.76C293.633 566.76 292.213 565.57 290.113 563.77C288.803 562.65 287.224 561.29 285.564 559.84C284.904 559.26 284.213 558.66 283.533 558.06C282.533 557.17 281.524 556.28 280.544 555.39C278.954 553.95 277.623 551.9 276.533 549.67C273.523 543.54 272.294 536.04 272.294 536.04C272.294 536.04 269.734 510.72 268.024 496.2C266.774 485.55 263.684 449.95 261.904 427.02C261.254 418.69 260.783 412.03 260.633 408.85C260.593 407.98 260.493 407.14 260.353 406.33C260.313 406.08 260.264 405.82 260.214 405.57C260.084 404.82 259.993 404.23 259.973 403.82C259.853 401.63 258.753 398.08 257.323 394.26L256.944 373.85L253.533 354.5L244.053 333.63L228.873 308.97L219.493 296.03C219.353 294.65 219.193 293.1 219.053 291.59C218.773 288.64 218.533 285.84 218.533 284.79C218.533 282.23 218.813 275.4 217.393 275.68C216.713 275.82 215.463 275.44 214.333 275L216.493 251.23L216.473 251.21Z" fill="#BB1A21"></path><path d="M358.794 501.77L356.604 498.94L352.704 493.9C352.704 493.9 350.994 496.37 347.394 498.64C345.304 499.96 342.064 500.64 339.714 500.98C338.234 499.98 337.154 499.3 337.154 499.3C337.154 499.3 334.304 489.63 340.004 487.63C345.694 485.64 352.524 487.06 352.524 487.06C352.524 487.06 354.993 489.93 357.583 492.76C358.523 493.79 359.473 494.81 360.333 495.69C361.513 496.9 362.494 497.83 362.994 498.11C363.014 498.12 363.044 498.15 363.064 498.16C363.384 498.32 364.404 499.34 365.864 500.88C369.824 505.07 376.994 513.19 381.934 518.82C381.834 519.12 381.744 519.42 381.654 519.72C380.744 522.77 380.274 525.89 379.204 528.13L361.254 504.92L358.804 501.75L358.794 501.77Z" fill="#F4B59C"></path><path d="M363.054 498.17C363.054 498.17 363.004 498.14 362.984 498.12C362.484 497.84 361.504 496.91 360.324 495.7C359.464 494.82 358.514 493.8 357.574 492.77C359.334 493.23 361.574 493.13 363.904 491.24C369.024 487.07 369.784 485.17 369.784 485.17L370.844 486.55L373.014 489.39L375.404 492.51L389.604 511.09C388.134 512.99 384.394 512.53 382.404 517.51C382.234 517.94 382.074 518.38 381.934 518.82C376.994 513.19 369.824 505.07 365.864 500.88C364.404 499.33 363.374 498.32 363.064 498.16L363.054 498.17Z" fill="#E8937C"></path><path d="M349.693 509.68C348.603 508.38 347.793 507.43 347.403 506.99L347.383 506.97C345.773 505.19 342.193 502.65 339.723 500.99C342.073 500.65 345.313 499.97 347.403 498.65C351.003 496.37 352.713 493.91 352.713 493.91L356.613 498.95L358.803 501.78L361.253 504.95L379.203 528.16C378.473 529.68 377.473 530.79 375.873 531.19C372.523 532.03 370.253 531.64 368.603 532.62C365.113 528.36 357.453 519.02 352.293 512.81C351.323 511.65 350.453 510.59 349.703 509.7L349.693 509.68Z" fill="#E8937C"></path><path d="M345.624 513.22L343.224 510.6C343.224 510.6 343.224 510.6 343.194 510.6C342.944 510.66 340.974 511.17 338.664 514.01C337.214 515.79 334.214 515.94 331.974 515.76C331.184 514.17 330.604 512.97 330.604 512.97C330.604 512.97 326.904 505.86 329.464 501.87C332.024 497.89 337.144 499.31 337.144 499.31C337.144 499.31 338.224 499.99 339.704 500.99C342.174 502.65 345.754 505.19 347.364 506.97L347.384 506.99C347.774 507.42 348.584 508.38 349.674 509.68C350.424 510.57 351.304 511.63 352.264 512.79C357.424 519 365.074 528.34 368.574 532.6C368.504 532.64 368.434 532.7 368.364 532.75C367.864 533.1 367.414 533.58 367.024 534.3C366.664 534.95 366.524 535.51 366.434 535.99L348.354 516.21L345.604 513.21L345.624 513.22Z" fill="#F4B59C"></path><path d="M336.023 523.21C335.843 522.95 335.613 522.59 335.353 522.15C334.843 521.29 334.233 520.14 333.603 518.94C333.033 517.85 332.473 516.73 331.983 515.75C334.223 515.93 337.233 515.78 338.673 514C340.973 511.16 342.953 510.65 343.203 510.59C343.223 510.59 343.233 510.59 343.233 510.59L345.633 513.21L348.383 516.21L366.463 535.99C366.133 537.84 366.633 538.75 359.653 540.56C357.193 541.19 355.323 541.87 353.763 542.55C350.443 539.01 341.813 529.78 337.913 525.4C336.953 524.32 336.273 523.53 336.033 523.2L336.023 523.21Z" fill="#E8937C"></path><path d="M343.904 545.91C342.214 544.84 340.584 543.84 339.724 543.41C337.804 542.45 329.174 537.02 326.544 535.36C326.064 535.05 325.784 534.88 325.784 534.88C325.784 534.88 325.194 534.21 323.984 532.53C323.914 532.43 323.844 532.33 323.774 532.23C323.624 532.01 323.464 531.79 323.284 531.53C322.984 530.67 322.634 529.73 322.294 528.79C322.064 528.16 321.834 527.54 321.614 526.97C321.094 525.61 320.634 524.49 320.374 524.07C319.524 522.65 320.374 514.4 322.934 513.54C325.494 512.69 330.614 512.97 330.614 512.97C330.614 512.97 331.194 514.17 331.984 515.76C332.474 516.74 333.044 517.86 333.604 518.95C334.224 520.15 334.844 521.29 335.354 522.16C335.614 522.6 335.834 522.96 336.024 523.22C336.254 523.55 336.934 524.34 337.904 525.42C341.804 529.79 350.434 539.03 353.754 542.57C353.734 542.57 353.724 542.58 353.714 542.59C350.114 544.15 348.204 545.67 344.904 546.56C344.784 546.49 344.674 546.41 344.554 546.34C344.344 546.2 344.124 546.07 343.914 545.93L343.904 545.91Z" fill="#CE826F"></path></g><defs><clipPath id="clip0_93_2684"><rect width="469.825" height="746" fill="white" transform="matrix(-1 0 0 1 469.824 0)"></rect></clipPath><clipPath id="clip1_93_2684"><rect width="25.7292" height="50.1019" fill="white" transform="matrix(-0.83205 -0.5547 -0.830139 0.557556 433 418.272)"></rect></clipPath></defs></svg>